<svg width="217" height="84" viewBox="0 0 217 84" fill="none" xmlns="http://www.w3.org/2000/svg">
<path d="M194.609 83.1206V0H196.82V83.1206H194.609ZM205.663 83.1206V0H207.874V83.1206H205.663ZM212.296 83.1206V0H216.718V83.1206H212.296Z" fill="#2C304F"/>
<path d="M170.283 83.1206V0H172.494V83.1206H170.283ZM176.916 83.1206V0H181.337V83.1206H176.916ZM190.181 83.1206V0H192.392V83.1206H190.181Z" fill="#2C304F"/>
<path d="M145.957 83.1206V0H148.167V83.1206H145.957ZM150.378 83.1206V0H159.222V83.1206H150.378ZM163.644 83.1206V0H165.855V83.1206H163.644Z" fill="#2C304F"/>
<path d="M121.631 83.1206V0H126.052V83.1206H121.631ZM134.896 83.1206V0H137.107V83.1206H134.896ZM141.529 83.1206V0H143.74V83.1206H141.529Z" fill="#2C304F"/>
<path d="M97.3042 83.1206V0H99.5151V83.1206H97.3042ZM103.937 83.1206V0H106.148V83.1206H103.937ZM108.359 83.1206V0H112.781V83.1206H108.359Z" fill="#2C304F"/>
<path d="M72.9785 83.1206V0H75.1895V83.1206H72.9785ZM79.6113 83.1206V0H84.0332V83.1206H79.6113ZM92.877 83.1206V0H95.0879V83.1206H92.877Z" fill="#2C304F"/>
<path d="M48.6521 83.1206V0H50.863V83.1206H48.6521ZM59.7068 83.1206V0H64.1287V83.1206H59.7068ZM68.5506 83.1206V0H70.7615V83.1206H68.5506Z" fill="#2C304F"/>
<path d="M24.3257 83.1206V0H26.5366V83.1206H24.3257ZM28.7476 83.1206V0H37.5913V83.1206H28.7476ZM42.0132 83.1206V0H44.2241V83.1206H42.0132Z" fill="#2C304F"/>
<path d="M0 83.1206V0H4.42188V83.1206H0ZM8.84376 83.1206V0H15.4766V83.1206H8.84376ZM19.8985 83.1206V0H22.1094V83.1206H19.8985Z" fill="#2C304F"/>
</svg>
