<svg width="496" height="753" viewBox="0 0 496 753" fill="none" xmlns="http://www.w3.org/2000/svg">
<path d="M-205 704.216H495M-205 656.433H495M-205 610.419H495M-205 562.635H495M-205 514.851H495M-205 467.067H495M-205 419.284H495M-205 371.5H495M-205 323.716H495M-205 275.932H495M-205 228.149H495M-205 180.365H495M-205 132.581H495M-205 86.5675H495M-205 38.7836H495M451.683 -9V752M408.366 -9V752M363.317 -9V752M320 -9V752M276.683 -9V752M233.366 -9V752M188.317 -9V752M145 -9V752M101.683 -9V752M58.3663 -9V752M13.3168 -9V752M-30 -9V752M-73.3168 -9V752M-116.634 -9V752M-161.683 -9V752M-205 -9H495V752H-205V-9Z" stroke="#890620" stroke-opacity="0.7" stroke-width="0.525" stroke-miterlimit="10"/>
</svg>
