<svg width="127" height="62" viewBox="0 0 127 62" fill="none" xmlns="http://www.w3.org/2000/svg">
<path d="M64.63 50.6C64.23 52.4 63.36 53.84 62.04 54.92C60.72 56 59.18 56.54 57.42 56.54H36.07C34.27 56.39 32.94 55.82 32.08 54.81C31.22 53.8 30.99 52.4 31.39 50.6L32.82 43.89H45.48L43.77 51.81H51.69L58.73 18.57H71.39L64.62 50.6H64.63Z" fill="#625D9C"/>
<path d="M57.42 55.79H36.05C34.54 55.66 33.36 55.15 32.65 54.32C31.94 53.49 31.77 52.33 32.12 50.76L33.43 44.63H44.55L42.84 52.55H52.3L59.34 19.31H70.46L70.4 19.61L63.89 50.43C63.52 52.07 62.76 53.34 61.56 54.33C60.37 55.31 59.01 55.78 57.41 55.78L57.42 55.79ZM36.07 55.29H57.41C58.89 55.29 60.14 54.85 61.24 53.95C62.35 53.04 63.05 51.86 63.4 50.34L69.85 19.82H59.75L52.71 53.06H42.22L43.93 45.14H33.83L32.61 50.87C32.3 52.28 32.43 53.3 33.03 54C33.65 54.73 34.71 55.18 36.08 55.29H36.07Z" fill="#F9F3ED"/>
<path d="M113.85 24.74C116.53 24.74 118.51 25.55 119.79 27.16C121.07 28.77 121.42 30.92 120.81 33.59L117.86 47.69C117.26 50.37 115.97 52.51 114.01 54.12C112.04 55.73 109.75 56.54 107.13 56.54H75.33C72.65 56.54 70.69 55.73 69.43 54.12C68.17 52.51 67.82 50.36 68.36 47.69L69.92 40.07H88.77L86.8 49.5H98.6L102.37 31.8H80.57C77.89 31.8 75.91 30.99 74.63 29.38C73.34 27.77 73 25.62 73.61 22.95L76.56 8.85C77.16 6.17 78.44 4.03 80.41 2.42C82.38 0.81 84.67 0 87.29 0H119.09C121.77 0 123.75 0.8 125.03 2.39C126.31 3.98 126.66 6.11 126.05 8.77L124.49 16.39H105.64L107.61 7.05H95.81L92.04 24.75H113.84L113.85 24.74Z" fill="#625D9C"/>
<path d="M107.13 55.79H75.33C72.87 55.79 71.14 55.09 70.02 53.66C68.89 52.22 68.59 50.31 69.1 47.84L70.54 40.82H87.86L85.89 50.25H99.22L103.31 31.05H80.58C78.12 31.05 76.37 30.35 75.23 28.92C74.08 27.48 73.8 25.59 74.35 23.12L77.3 9.01C77.86 6.52 79.07 4.5 80.89 3C82.74 1.49 84.83 0.75 87.3 0.75H119.1C121.56 0.75 123.31 1.44 124.46 2.86C125.6 4.28 125.89 6.16 125.34 8.6L123.9 15.64H106.58L108.55 6.3H95.22L91.13 25.5H113.86C116.32 25.5 118.07 26.2 119.22 27.64C120.36 29.08 120.65 30.98 120.1 33.44L117.15 47.55C116.58 50.08 115.4 52.04 113.56 53.56C111.71 55.07 109.62 55.81 107.15 55.81L107.13 55.79ZM70.94 41.32L69.59 47.94C69.12 50.26 69.39 52.03 70.42 53.36C71.44 54.66 73.04 55.3 75.34 55.3H107.14C109.49 55.3 111.48 54.6 113.23 53.17C114.99 51.73 116.11 49.85 116.65 47.44L119.6 33.33C120.12 31.02 119.86 29.26 118.82 27.94C117.78 26.63 116.15 25.99 113.86 25.99H90.51L94.81 5.79H109.17L107.2 15.13H123.49L124.85 8.49C125.37 6.2 125.11 4.46 124.07 3.17C123.03 1.87 121.4 1.24 119.1 1.24H87.3C84.96 1.24 82.96 1.94 81.21 3.37C79.47 4.79 78.32 6.72 77.79 9.1L74.84 23.21C74.32 25.52 74.58 27.28 75.62 28.6C76.66 29.91 78.29 30.55 80.58 30.55H103.93L99.63 50.75H85.28L87.25 41.32H70.94Z" fill="#F9F3ED"/>
<path d="M71.68 16.39H59.04L60.8 7.95H73.5L71.67 16.39H71.68Z" fill="#625D9C"/>
<path d="M71.08 15.64H59.97L61.42 8.7H72.58L71.08 15.64ZM60.58 15.14H70.67L71.96 9.2H61.83L60.59 15.14H60.58Z" fill="#F9F3ED"/>
<path d="M27.64 51.78C15 48.02 14.03 48.52 8.01 61.72C12.33 47.87 11.93 46.85 0 41.23C12.64 44.99 13.61 44.49 19.63 31.29C15.31 45.14 15.71 46.16 27.64 51.78Z" fill="#625D9C"/>
<path d="M10.9 54.11L11.07 52.99C11.67 48.87 10.72 46.6 7.41 44.33L6.54 43.74L7.58 43.88C8.23 43.97 8.81 44.01 9.36 44.01C12.28 44.01 14.18 42.84 16.14 39.85L16.76 38.9L16.59 40.02C15.99 44.14 16.94 46.41 20.25 48.68L21.12 49.27L20.08 49.13C19.44 49.04 18.85 49 18.3 49C15.38 49 13.48 50.17 11.52 53.16L10.9 54.11ZM8.44 44.47C11.07 46.5 11.99 48.64 11.67 52.06C13.73 49.28 15.93 48.3 19.2 48.54C16.57 46.51 15.65 44.37 15.97 40.95C13.91 43.73 11.74 44.71 8.44 44.47Z" fill="#F9F3ED"/>
</svg>
