<svg width="384" height="388" viewBox="0 0 384 388" fill="none" xmlns="http://www.w3.org/2000/svg">
<g filter="url(#filter0_d_128_847)">
<rect width="358" height="358" rx="11.2579" fill="#B9E4C9"/>
<path d="M112.533 32.4115H110.776C110.642 32.4115 110.527 32.4587 110.433 32.5529C110.339 32.6472 110.292 32.7616 110.292 32.8963V35.9054C110.292 36.0401 110.245 36.1545 110.15 36.2488C110.056 36.343 109.942 36.3901 109.807 36.3901H106.757C106.623 36.3901 106.508 36.343 106.414 36.2488C106.32 36.1545 106.273 36.0401 106.273 35.9054V22.0915C106.273 21.9568 106.32 21.8424 106.414 21.7481C106.508 21.6539 106.623 21.6068 106.757 21.6068H112.937C113.691 21.6068 114.398 21.7481 115.058 22.0309C115.731 22.3136 116.31 22.7041 116.795 23.2022C117.293 23.7004 117.683 24.2793 117.966 24.9391C118.262 25.5988 118.41 26.3057 118.41 27.0596C118.41 27.8136 118.289 28.5205 118.047 29.1802C117.804 29.8265 117.434 30.392 116.936 30.8767C116.451 31.3479 115.839 31.7249 115.098 32.0076C114.371 32.2769 113.516 32.4115 112.533 32.4115ZM112.675 25.3228H110.776C110.642 25.3228 110.527 25.3699 110.433 25.4642C110.339 25.5584 110.292 25.6729 110.292 25.8075V28.1906C110.292 28.3253 110.339 28.4397 110.433 28.5339C110.527 28.6282 110.642 28.6753 110.776 28.6753H112.937C113.449 28.6753 113.819 28.5137 114.048 28.1906C114.29 27.854 114.412 27.477 114.412 27.0596C114.412 26.8442 114.371 26.6355 114.29 26.4336C114.223 26.2181 114.115 26.0297 113.967 25.8681C113.819 25.7065 113.637 25.5786 113.422 25.4844C113.207 25.3767 112.957 25.3228 112.675 25.3228ZM119.334 28.9984C119.334 27.9483 119.536 26.9587 119.94 26.0297C120.344 25.1006 120.889 24.2928 121.576 23.6061C122.262 22.906 123.07 22.354 123.999 21.9501C124.928 21.5462 125.918 21.3442 126.968 21.3442C128.018 21.3442 129.008 21.5462 129.937 21.9501C130.866 22.354 131.674 22.906 132.36 23.6061C133.06 24.2928 133.613 25.1006 134.016 26.0297C134.42 26.9587 134.622 27.9483 134.622 28.9984C134.622 30.0486 134.42 31.0382 134.016 31.9672C133.613 32.8963 133.06 33.7108 132.36 34.4109C131.674 35.0976 130.866 35.6429 129.937 36.0468C129.008 36.4507 128.018 36.6527 126.968 36.6527C125.918 36.6527 124.928 36.4507 123.999 36.0468C123.07 35.6429 122.262 35.0976 121.576 34.4109C120.889 33.7108 120.344 32.8963 119.94 31.9672C119.536 31.0382 119.334 30.0486 119.334 28.9984ZM123.333 28.9984C123.333 29.5101 123.427 29.9948 123.616 30.4525C123.804 30.9103 124.06 31.3142 124.383 31.6643C124.72 32.0144 125.11 32.2971 125.554 32.5125C125.999 32.7145 126.47 32.8155 126.968 32.8155C127.466 32.8155 127.937 32.7145 128.382 32.5125C128.826 32.2971 129.217 32.0144 129.553 31.6643C129.89 31.3142 130.152 30.9103 130.341 30.4525C130.529 29.9948 130.624 29.5101 130.624 28.9984C130.624 28.5003 130.529 28.0223 130.341 27.5645C130.152 27.0933 129.89 26.6894 129.553 26.3528C129.217 26.0027 128.826 25.7267 128.382 25.5248C127.937 25.3093 127.466 25.2016 126.968 25.2016C126.47 25.2016 125.999 25.3093 125.554 25.5248C125.11 25.7267 124.72 26.0027 124.383 26.3528C124.06 26.6894 123.804 27.0933 123.616 27.5645C123.427 28.0223 123.333 28.5003 123.333 28.9984ZM150.983 32.4519C150.593 33.0847 150.162 33.6637 149.691 34.1888C149.22 34.7004 148.688 35.138 148.095 35.5015C147.517 35.865 146.87 36.1478 146.157 36.3497C145.443 36.5517 144.655 36.6527 143.794 36.6527C142.717 36.6527 141.707 36.4507 140.764 36.0468C139.822 35.6429 138.994 35.0976 138.28 34.4109C137.58 33.7243 137.028 32.9164 136.624 31.9874C136.22 31.0584 136.018 30.0688 136.018 29.0186C136.018 27.9685 136.22 26.9789 136.624 26.0498C137.028 25.1208 137.58 24.313 138.28 23.6263C138.994 22.9397 139.822 22.3944 140.764 21.9905C141.707 21.5866 142.717 21.3846 143.794 21.3846C144.682 21.3846 145.483 21.4856 146.197 21.6875C146.911 21.8895 147.557 22.1722 148.136 22.5358C148.715 22.8993 149.233 23.3436 149.691 23.8687C150.162 24.3803 150.593 24.9458 150.983 25.5651C151.051 25.6729 151.064 25.7873 151.024 25.9085C150.983 26.0297 150.903 26.1172 150.782 26.171L147.914 27.302C147.779 27.3558 147.644 27.3558 147.51 27.302C147.375 27.2481 147.274 27.1674 147.207 27.0596C146.816 26.4403 146.345 25.9691 145.793 25.6459C145.241 25.3093 144.575 25.141 143.794 25.141C143.282 25.141 142.797 25.2487 142.34 25.4642C141.895 25.6796 141.505 25.9691 141.168 26.3326C140.832 26.6827 140.569 27.0933 140.381 27.5645C140.192 28.0358 140.098 28.5205 140.098 29.0186C140.098 29.5303 140.192 30.0217 140.381 30.4929C140.569 30.9507 140.832 31.3546 141.168 31.7047C141.505 32.0548 141.895 32.3375 142.34 32.5529C142.797 32.7683 143.282 32.8761 143.794 32.8761C144.534 32.8761 145.201 32.701 145.793 32.351C146.399 31.9874 146.877 31.5229 147.227 30.9574C147.294 30.8497 147.389 30.769 147.51 30.7151C147.644 30.6612 147.779 30.6612 147.914 30.7151L150.782 31.8461C150.903 31.8999 150.983 31.9874 151.024 32.1086C151.064 32.2163 151.051 32.3308 150.983 32.4519ZM160.803 36.0266L156.885 31.6441C156.791 31.5364 156.71 31.496 156.643 31.5229C156.589 31.5499 156.562 31.6306 156.562 31.7653V35.9054C156.562 36.0401 156.515 36.1545 156.421 36.2488C156.327 36.343 156.212 36.3901 156.077 36.3901H153.048C152.9 36.3901 152.779 36.343 152.685 36.2488C152.604 36.1545 152.563 36.0401 152.563 35.9054V22.0915C152.563 21.9568 152.604 21.8424 152.685 21.7481C152.779 21.6539 152.9 21.6068 153.048 21.6068H156.077C156.212 21.6068 156.327 21.6539 156.421 21.7481C156.515 21.8424 156.562 21.9568 156.562 22.0915V26.7365C156.562 26.8711 156.589 26.9519 156.643 26.9789C156.697 26.9923 156.764 26.9452 156.845 26.8375L160.48 22.0107C160.561 21.903 160.675 21.8154 160.823 21.7481C160.972 21.6673 161.12 21.627 161.268 21.627H165.125C165.273 21.627 165.368 21.6943 165.408 21.8289C165.448 21.9501 165.428 22.0645 165.347 22.1722L160.036 28.8167C159.955 28.9244 159.915 29.0523 159.915 29.2004C159.928 29.335 159.982 29.4495 160.076 29.5437C160.534 30.0419 161.019 30.5603 161.53 31.0988C162.042 31.6374 162.547 32.1827 163.045 32.7347C163.557 33.2732 164.055 33.8118 164.539 34.3504C165.038 34.8754 165.509 35.3669 165.953 35.8247C166.047 35.9324 166.081 36.0535 166.054 36.1882C166.027 36.3228 165.94 36.3901 165.792 36.3901H161.611C161.463 36.3901 161.308 36.3565 161.147 36.2892C160.998 36.2218 160.884 36.1343 160.803 36.0266ZM171.332 25.8075V26.6557C171.332 26.7904 171.38 26.9048 171.474 26.9991C171.568 27.0933 171.682 27.1404 171.817 27.1404H177.29C177.425 27.1404 177.539 27.1875 177.634 27.2818C177.728 27.376 177.775 27.4905 177.775 27.6251V30.4122C177.775 30.5468 177.728 30.6612 177.634 30.7555C177.539 30.8497 177.425 30.8969 177.29 30.8969H171.817C171.682 30.8969 171.568 30.944 171.474 31.0382C171.38 31.1325 171.332 31.2469 171.332 31.3816V32.149C171.332 32.2836 171.38 32.3981 171.474 32.4923C171.568 32.5866 171.682 32.6337 171.817 32.6337H178.098C178.233 32.6337 178.347 32.6808 178.441 32.7751C178.536 32.8693 178.583 32.9838 178.583 33.1184V35.9054C178.583 36.0401 178.536 36.1545 178.441 36.2488C178.347 36.343 178.233 36.3901 178.098 36.3901H167.818C167.684 36.3901 167.569 36.343 167.475 36.2488C167.381 36.1545 167.334 36.0401 167.334 35.9054V22.0915C167.334 21.9568 167.381 21.8424 167.475 21.7481C167.569 21.6539 167.684 21.6068 167.818 21.6068H178.098C178.233 21.6068 178.347 21.6539 178.441 21.7481C178.536 21.8424 178.583 21.9568 178.583 22.0915V24.8381C178.583 24.9727 178.536 25.0872 178.441 25.1814C178.347 25.2757 178.233 25.3228 178.098 25.3228H171.817C171.682 25.3228 171.568 25.3699 171.474 25.4642C171.38 25.5584 171.332 25.6729 171.332 25.8075ZM190.814 25.3228H187.986C187.852 25.3228 187.737 25.3699 187.643 25.4642C187.549 25.5584 187.502 25.6729 187.502 25.8075V35.9054C187.502 36.0401 187.455 36.1545 187.36 36.2488C187.28 36.343 187.165 36.3901 187.017 36.3901H183.988C183.853 36.3901 183.739 36.343 183.644 36.2488C183.55 36.1545 183.503 36.0401 183.503 35.9054V25.8075C183.503 25.6729 183.456 25.5584 183.362 25.4642C183.281 25.3699 183.166 25.3228 183.018 25.3228H180.15C180.016 25.3228 179.901 25.2757 179.807 25.1814C179.713 25.0872 179.666 24.9727 179.666 24.8381V22.0915C179.666 21.9568 179.713 21.8424 179.807 21.7481C179.901 21.6539 180.016 21.6068 180.15 21.6068H190.814C190.962 21.6068 191.076 21.6539 191.157 21.7481C191.251 21.8424 191.299 21.9568 191.299 22.0915V24.8381C191.299 24.9727 191.251 25.0872 191.157 25.1814C191.076 25.2757 190.962 25.3228 190.814 25.3228ZM205.998 32.4115H204.241C204.107 32.4115 203.992 32.4587 203.898 32.5529C203.804 32.6472 203.757 32.7616 203.757 32.8963V35.9054C203.757 36.0401 203.71 36.1545 203.615 36.2488C203.521 36.343 203.407 36.3901 203.272 36.3901H200.222C200.088 36.3901 199.973 36.343 199.879 36.2488C199.785 36.1545 199.738 36.0401 199.738 35.9054V22.0915C199.738 21.9568 199.785 21.8424 199.879 21.7481C199.973 21.6539 200.088 21.6068 200.222 21.6068H206.402C207.156 21.6068 207.863 21.7481 208.523 22.0309C209.196 22.3136 209.775 22.7041 210.26 23.2022C210.758 23.7004 211.148 24.2793 211.431 24.9391C211.727 25.5988 211.875 26.3057 211.875 27.0596C211.875 27.8136 211.754 28.5205 211.512 29.1802C211.27 29.8265 210.899 30.392 210.401 30.8767C209.916 31.3479 209.304 31.7249 208.563 32.0076C207.836 32.2769 206.981 32.4115 205.998 32.4115ZM206.14 25.3228H204.241C204.107 25.3228 203.992 25.3699 203.898 25.4642C203.804 25.5584 203.757 25.6729 203.757 25.8075V28.1906C203.757 28.3253 203.804 28.4397 203.898 28.5339C203.992 28.6282 204.107 28.6753 204.241 28.6753H206.402C206.914 28.6753 207.284 28.5137 207.513 28.1906C207.756 27.854 207.877 27.477 207.877 27.0596C207.877 26.8442 207.836 26.6355 207.756 26.4336C207.688 26.2181 207.58 26.0297 207.432 25.8681C207.284 25.7065 207.103 25.5786 206.887 25.4844C206.672 25.3767 206.423 25.3228 206.14 25.3228ZM216.526 22.0713C216.58 21.9501 216.667 21.8491 216.788 21.7683C216.923 21.6741 217.064 21.627 217.212 21.627H220.04C220.174 21.627 220.302 21.6741 220.424 21.7683C220.558 21.8491 220.652 21.9501 220.706 22.0713L226.603 35.8045C226.657 35.9256 226.644 36.0535 226.563 36.1882C226.496 36.3228 226.354 36.3901 226.139 36.3901H222.685C222.537 36.3901 222.396 36.3497 222.261 36.269C222.14 36.1747 222.046 36.067 221.979 35.9458L221.433 34.7341C221.366 34.6129 221.265 34.5119 221.13 34.4311C221.009 34.3369 220.881 34.2898 220.747 34.2898H216.485C216.337 34.2898 216.196 34.3369 216.061 34.4311C215.94 34.5119 215.853 34.6129 215.799 34.7341L215.233 35.9458C215.179 36.067 215.085 36.1747 214.95 36.269C214.829 36.3497 214.701 36.3901 214.567 36.3901H211.093C211.026 36.3901 210.958 36.3767 210.891 36.3497C210.81 36.3228 210.75 36.2824 210.709 36.2286C210.655 36.1747 210.622 36.1074 210.608 36.0266C210.595 35.9458 210.615 35.8516 210.669 35.7439L216.526 22.0713ZM217.717 30.8565H219.515C219.649 30.8565 219.744 30.8161 219.797 30.7353C219.865 30.641 219.865 30.5333 219.797 30.4122C219.663 30.0756 219.501 29.6851 219.313 29.2408C219.124 28.783 218.949 28.3589 218.788 27.9685C218.734 27.8473 218.673 27.7867 218.606 27.7867C218.539 27.7867 218.478 27.8473 218.424 27.9685L217.414 30.4122C217.36 30.5333 217.36 30.641 217.414 30.7353C217.468 30.8161 217.569 30.8565 217.717 30.8565ZM238.554 33.1588V35.9054C238.554 36.0401 238.507 36.1545 238.413 36.2488C238.319 36.343 238.204 36.3901 238.07 36.3901H227.992C227.844 36.3901 227.722 36.343 227.628 36.2488C227.547 36.1545 227.507 36.0401 227.507 35.9054V22.0915C227.507 21.9568 227.547 21.8424 227.628 21.7481C227.722 21.6539 227.844 21.6068 227.992 21.6068H231.021C231.156 21.6068 231.27 21.6539 231.364 21.7481C231.459 21.8424 231.506 21.9568 231.506 22.0915V32.1894C231.506 32.324 231.546 32.4385 231.627 32.5327C231.721 32.627 231.842 32.6741 231.991 32.6741H238.07C238.204 32.6741 238.319 32.7212 238.413 32.8155C238.507 32.9097 238.554 33.0242 238.554 33.1588ZM241.195 31.321C241.922 31.7922 242.642 32.1625 243.356 32.4317C244.069 32.701 244.736 32.8357 245.355 32.8357C245.948 32.8357 246.399 32.7549 246.708 32.5933C247.018 32.4183 247.173 32.1625 247.173 31.8259C247.173 31.6508 247.105 31.5162 246.971 31.422C246.836 31.3142 246.654 31.2267 246.426 31.1594C246.21 31.0921 245.954 31.0382 245.658 30.9978C245.362 30.9574 245.059 30.9036 244.749 30.8363C244.453 30.7824 244.103 30.7218 243.699 30.6545C243.309 30.5737 242.905 30.466 242.487 30.3314C242.07 30.1833 241.653 30.0015 241.235 29.7861C240.831 29.5707 240.468 29.2947 240.145 28.9581C239.822 28.6215 239.559 28.2243 239.357 27.7665C239.169 27.2953 239.074 26.7432 239.074 26.1104C239.074 25.1814 239.256 24.414 239.62 23.8081C239.983 23.2022 240.441 22.7243 240.993 22.3742C241.558 22.0107 242.184 21.7616 242.871 21.627C243.558 21.4788 244.224 21.4048 244.87 21.4048C246.001 21.4048 247.011 21.5731 247.9 21.9097C248.802 22.2328 249.664 22.7108 250.485 23.3436C250.593 23.4378 250.653 23.5523 250.667 23.6869C250.68 23.8216 250.646 23.9427 250.566 24.0505L248.99 26.2922C248.91 26.3999 248.802 26.4672 248.667 26.4942C248.533 26.5211 248.411 26.4942 248.304 26.4134C247.617 25.9825 246.978 25.6796 246.385 25.5046C245.793 25.3161 245.247 25.2218 244.749 25.2218C244.601 25.2218 244.426 25.2285 244.224 25.242C244.036 25.242 243.854 25.2689 243.679 25.3228C243.504 25.3632 243.356 25.4372 243.235 25.545C243.127 25.6527 243.073 25.8008 243.073 25.9893C243.073 26.1778 243.214 26.3461 243.497 26.4942C243.78 26.6423 244.103 26.7702 244.467 26.8779C244.83 26.9856 245.18 27.0731 245.517 27.1404C245.853 27.1943 246.069 27.2279 246.163 27.2414C246.648 27.3357 247.18 27.477 247.758 27.6655C248.337 27.8405 248.876 28.1098 249.374 28.4734C249.886 28.8234 250.31 29.2879 250.646 29.8669C250.997 30.4324 251.172 31.1459 251.172 32.0076C251.172 32.8155 251.03 33.5156 250.747 34.108C250.465 34.687 250.068 35.1649 249.556 35.5419C249.058 35.9189 248.452 36.2016 247.738 36.3901C247.038 36.5652 246.257 36.6527 245.396 36.6527C244.695 36.6527 244.042 36.5921 243.437 36.4709C242.831 36.3632 242.265 36.2084 241.74 36.0064C241.215 35.8045 240.724 35.5688 240.266 35.2996C239.822 35.0168 239.411 34.7206 239.034 34.4109C238.926 34.3302 238.866 34.2224 238.852 34.0878C238.839 33.9397 238.872 33.8118 238.953 33.7041L240.508 31.4623C240.589 31.3546 240.697 31.2873 240.831 31.2604C240.966 31.2335 241.087 31.2537 241.195 31.321Z" fill="#13644D"/>
<ellipse cx="178.973" cy="293.194" rx="91.1619" ry="43.4772" fill="#13644D"/>
<path d="M211.102 186.805C209.19 171.127 206.092 165.048 201.542 165.905C198.338 166.34 194.356 167.659 190.387 170.125C190.044 169.98 189.675 169.887 189.292 169.9C188.33 169.94 187.591 170.52 186.959 171.219C186.959 170.995 186.932 170.771 186.827 170.56C186.602 170.098 186.141 169.795 185.627 169.927C184.427 170.204 183.636 171.826 183.095 172.801C181.75 175.254 180.669 177.852 179.838 180.528C176.621 185.434 174.168 191.763 173.271 199.78C170.594 223.502 189.899 257.523 189.899 257.523C189.899 257.523 217.353 216.105 211.116 186.792L211.102 186.805Z" fill="#774D2F"/>
<path d="M168.089 290.766L168.142 290.805C168.142 290.805 167.126 296.409 171.966 296.924C176.805 297.438 185.218 297.438 186.747 295.908C187.367 295.289 187.802 291.807 188.106 287.891C186.233 287.351 183.926 286.902 181.262 286.863C175.434 286.77 170.95 288.999 168.089 290.779V290.766Z" fill="#B78558"/>
<path d="M122.689 289.051C122.742 289.222 122.781 289.315 122.781 289.315C122.781 289.315 115.819 290.422 117.863 295.75C120.539 300.075 134.174 298.927 137.233 296.897C137.945 296.554 138.578 296.158 139.172 295.736C135.453 289.17 129.045 288.207 122.689 289.064V289.051Z" fill="#B78558"/>
<path d="M179.864 188.335C178.717 180.713 182.409 151.216 180.102 132.294C182.264 132.821 185.429 132.531 187.446 127.52C190.73 119.358 182.185 112.475 177.794 113.503C176.146 113.886 174.418 114.848 172.928 115.89C162.63 108.005 143.431 107.332 136.969 107.28C135.229 105.908 132.987 104.458 130.851 103.957C126.447 102.941 117.915 109.824 121.199 117.974C122.175 120.387 123.414 121.705 124.68 122.351C120.698 130.738 107.591 160.539 105.428 192.911C102.975 229.674 121.278 284.858 122.689 289.038C129.031 288.194 135.44 289.144 139.172 295.71C144.275 292.11 145.844 286.282 154.52 286.282C163.777 286.282 167.575 290.383 168.089 290.752C170.95 288.972 175.434 286.757 181.262 286.836C183.926 286.876 186.233 287.324 188.106 287.865C188.541 282.181 188.686 275.588 188.686 275.588L192.101 244.904C185.468 240.315 181.394 198.515 179.864 188.322V188.335Z" fill="#936641"/>
<path d="M117.48 196.128C117.48 196.128 122.833 226.72 130.099 227.485C137.365 228.25 135.413 221.617 135.413 221.617L128.569 191.54C128.569 191.54 123.598 200.717 117.48 196.128Z" fill="#B78558"/>
<path d="M129.835 225.243L130.851 228.685" stroke="#231F20" stroke-width="0.409527" stroke-miterlimit="10"/>
<path d="M133.211 224.794L134.24 228.236" stroke="#231F20" stroke-width="0.409527" stroke-miterlimit="10"/>
<path d="M169.052 196.128C169.052 196.128 163.698 226.72 156.432 227.485C149.167 228.25 151.118 221.617 151.118 221.617L157.962 191.54C157.962 191.54 162.933 200.717 169.052 196.128Z" fill="#B78558"/>
<path d="M156.696 225.243L155.68 228.685" stroke="#231F20" stroke-width="0.409527" stroke-miterlimit="10"/>
<path d="M153.321 224.794L152.292 228.236" stroke="#231F20" stroke-width="0.409527" stroke-miterlimit="10"/>
<path d="M143.637 128.027C144.515 125.572 144.232 123.226 143.004 122.787C141.777 122.348 140.07 123.982 139.192 126.437C138.314 128.892 138.597 131.238 139.825 131.677C141.052 132.116 142.759 130.482 143.637 128.027Z" fill="#231F20"/>
<path d="M168.867 136.553C169.864 136.553 170.673 134.439 170.673 131.832C170.673 129.225 169.864 127.111 168.867 127.111C167.869 127.111 167.06 129.225 167.06 131.832C167.06 134.439 167.869 136.553 168.867 136.553Z" fill="#231F20"/>
<path d="M160.599 147.84C160.599 147.577 160.467 147.339 160.19 147.3C159.953 147.273 159.649 147.458 159.649 147.709C159.623 148.605 159.438 149.515 158.871 150.24C158.423 150.807 157.671 151.203 156.933 151.111C156.181 151.018 155.641 150.399 155.364 149.726C154.995 148.843 155.061 147.827 155.1 146.891C155.113 146.561 154.863 146.377 154.612 146.364C154.362 146.311 154.072 146.416 153.992 146.746C153.782 147.669 153.571 148.645 152.977 149.41C152.529 149.977 151.843 150.438 151.092 150.319C150.353 150.214 149.747 149.621 149.47 148.961C149.114 148.117 149.193 147.181 149.404 146.324C149.47 146.073 149.232 145.81 148.995 145.783C148.718 145.744 148.507 145.942 148.454 146.192C148.059 147.814 148.27 149.752 149.733 150.781C150.393 151.242 151.197 151.44 151.988 151.229C152.753 151.031 153.425 150.504 153.874 149.845C154.006 149.647 154.124 149.436 154.23 149.225C154.269 149.462 154.322 149.7 154.401 149.924C154.665 150.675 155.153 151.361 155.839 151.757C156.537 152.165 157.368 152.192 158.133 151.928C159.821 151.335 160.546 149.528 160.612 147.854L160.599 147.84Z" fill="#231F20"/>
<path d="M155.68 142.262C155.245 142.618 154.612 142.526 154.296 142.051L152.397 139.19L151.092 137.212C150.643 136.54 151.21 135.643 152.015 135.762L155.852 136.329L159.689 136.896C160.493 137.014 160.77 138.03 160.151 138.544L158.318 140.06L155.667 142.249L155.68 142.262Z" fill="#231F20"/>
<path d="M253.245 240.921C254.551 232.047 253.773 228.249 251.149 228.025C249.329 227.775 246.942 227.906 244.397 228.658C244.239 228.526 244.041 228.421 243.83 228.368C243.303 228.236 242.802 228.447 242.353 228.737C242.38 228.618 242.406 228.487 242.38 228.355C242.327 228.065 242.116 227.841 241.813 227.827C241.114 227.801 240.428 228.566 239.993 229.027C238.885 230.174 237.897 231.427 237.039 232.772C234.534 234.974 232.24 238.073 230.539 242.332C225.501 254.925 230.961 276.484 230.961 276.484C230.961 276.484 252.243 257.918 253.232 240.921H253.245Z" fill="#895233"/>
<path d="M187.552 296.462L187.631 298.637C187.631 298.637 188.646 301.697 197.257 300.549C205.854 299.402 200.118 296.158 200.118 296.158C200.118 296.158 200.118 296.132 200.118 296.106C195.094 294.655 192.088 294.629 187.525 296.475L187.552 296.462Z" fill="#A56738"/>
<path d="M216.996 297.543L217.076 298.637C217.076 298.637 218.091 301.697 226.702 300.549C235.299 299.402 229.563 296.158 229.563 296.158C229.563 296.158 229.563 296.119 229.589 296.053C224.262 294.629 220.069 296.264 216.996 297.543Z" fill="#A56738"/>
<path d="M244.358 198.765C244.358 194.189 241.51 190.484 237.989 190.484C235.655 190.484 233.624 192.119 232.517 194.532C230.13 193.53 216.759 188.308 205.05 191.513C204.667 187.412 201.991 184.247 198.734 184.247C195.213 184.247 192.365 187.952 192.365 192.528C192.365 195.165 193.314 197.512 194.804 199.029C194.804 204.58 194.435 225.599 188.87 248.543C181.987 272.054 187.538 295.38 187.538 295.38L187.578 296.448C192.14 294.602 195.147 294.629 200.171 296.079C200.224 295.829 200.448 294.747 200.54 294.352C200.54 294.352 202.887 291.306 207.674 290.528C211.748 289.869 214.623 290.475 216.548 291.306L217.023 297.53C220.095 296.237 224.302 294.602 229.616 296.04C229.682 295.723 229.892 294.734 229.972 294.352C230.275 293.112 231.027 290.343 231.528 288.458C234.692 281.245 240.296 266.107 241.562 247.066C243.276 221.142 243.936 214.892 240.784 206.189C242.907 204.844 244.358 202.022 244.358 198.752V198.765Z" fill="#B77946"/>
<path d="M204.101 240.75C204.101 240.75 203.085 260.147 207.41 261.637C211.735 263.127 211.472 258.802 211.472 258.802L211.511 239.498C211.511 239.498 207.199 244.403 204.101 240.737V240.75Z" fill="#A56738"/>
<path d="M207.556 260.226L207.701 262.468" stroke="#231F20" stroke-width="0.258058" stroke-miterlimit="10"/>
<path d="M209.678 260.437L209.823 262.679" stroke="#231F20" stroke-width="0.258058" stroke-miterlimit="10"/>
<path d="M233.031 243.77C233.031 243.77 229.682 262.903 225.133 263.391C220.583 263.879 221.81 259.725 221.81 259.725L226.095 240.908C226.095 240.908 229.207 246.644 233.031 243.783V243.77Z" fill="#A56738"/>
<path d="M225.304 261.993L224.671 264.143" stroke="#231F20" stroke-width="0.258058" stroke-miterlimit="10"/>
<path d="M223.181 261.716L222.548 263.865" stroke="#231F20" stroke-width="0.258058" stroke-miterlimit="10"/>
<path d="M229.293 209.101C230.627 208.825 231.301 206.63 230.799 204.198C230.296 201.766 228.808 200.018 227.474 200.294C226.141 200.569 225.467 202.764 225.969 205.196C226.471 207.628 227.96 209.376 229.293 209.101Z" fill="#231F20"/>
<path d="M206.915 205.066C207.409 202.677 206.918 200.556 205.82 200.329C204.722 200.103 203.431 201.856 202.938 204.245C202.444 206.634 202.935 208.755 204.033 208.982C205.131 209.208 206.422 207.455 206.915 205.066Z" fill="#231F20"/>
<path d="M210.377 216.329C210.377 216.145 210.496 215.973 210.707 215.947C210.878 215.934 211.089 216.079 211.089 216.276C211.076 216.923 211.168 217.608 211.551 218.149C211.854 218.584 212.381 218.9 212.922 218.874C213.476 218.835 213.898 218.413 214.122 217.938C214.425 217.305 214.425 216.566 214.438 215.881C214.438 215.643 214.636 215.525 214.821 215.512C215.005 215.485 215.216 215.578 215.256 215.815C215.361 216.487 215.48 217.213 215.876 217.793C216.179 218.228 216.654 218.584 217.207 218.544C217.748 218.492 218.223 218.096 218.447 217.621C218.737 217.028 218.737 216.342 218.618 215.696C218.579 215.512 218.763 215.327 218.948 215.314C219.159 215.301 219.291 215.446 219.33 215.643C219.541 216.843 219.304 218.241 218.183 218.927C217.682 219.23 217.089 219.336 216.522 219.151C215.968 218.966 215.506 218.558 215.216 218.057C215.124 217.898 215.045 217.74 214.979 217.582C214.939 217.753 214.887 217.925 214.821 218.083C214.597 218.61 214.201 219.098 213.687 219.362C213.159 219.626 212.553 219.613 212.012 219.388C210.812 218.887 210.364 217.529 210.39 216.316L210.377 216.329Z" fill="#231F20"/>
<path d="M214.214 212.492C214.518 212.769 214.979 212.729 215.23 212.4L216.733 210.396L217.775 209.011C218.131 208.536 217.761 207.864 217.168 207.916L214.346 208.154L211.524 208.391C210.931 208.444 210.68 209.169 211.115 209.578L212.381 210.765L214.214 212.479V212.492Z" fill="#231F20"/>
<path d="M136.553 50.0794C136.777 50.0794 136.966 50.1782 137.118 50.3756C137.271 50.5731 137.468 50.9815 137.711 51.6008C138.276 53.0639 138.828 55.3573 139.367 58.4809C139.376 58.5168 139.38 58.5707 139.38 58.6425C139.38 58.7053 139.335 58.7771 139.246 58.8579C139.165 58.9297 139.044 58.9656 138.882 58.9656C138.73 58.9656 138.599 58.9297 138.492 58.8579C138.384 58.7771 138.312 58.6515 138.276 58.4809C138.24 58.3014 138.173 57.9558 138.074 57.4442C137.859 56.3042 137.715 55.7118 137.643 55.667C137.536 55.6041 137.177 55.5368 136.566 55.465C135.965 55.3932 135.566 55.3573 135.368 55.3573C135.171 55.3573 135.054 55.3752 135.018 55.4111C134.856 55.5548 134.637 56.6453 134.358 58.6829C134.322 58.8534 134.152 58.9387 133.847 58.9387C133.541 58.9387 133.389 58.8085 133.389 58.5482C133.389 57.902 133.627 56.6678 134.102 54.8457C134.578 53.0235 134.973 51.8163 135.287 51.2239C135.682 50.4609 136.104 50.0794 136.553 50.0794ZM136.499 51.5739C136.364 51.5739 136.131 51.9734 135.799 52.7722C135.467 53.5621 135.301 54.0513 135.301 54.2398C135.301 54.2847 135.31 54.3161 135.328 54.334C135.4 54.4058 135.682 54.4687 136.176 54.5225C136.67 54.5764 136.997 54.6033 137.159 54.6033C137.32 54.6033 137.41 54.5943 137.428 54.5764C137.446 54.5494 137.455 54.4776 137.455 54.361C137.455 54.2353 137.334 53.7416 137.091 52.8799C136.849 52.0093 136.652 51.5739 136.499 51.5739ZM140.663 58.5348L140.515 53.0684C140.515 52.8979 140.573 52.7587 140.69 52.651C140.807 52.5433 140.924 52.4895 141.04 52.4895C141.327 52.4895 141.493 52.6106 141.538 52.853C141.574 53.0953 141.592 53.3467 141.592 53.607C142.077 52.9697 142.683 52.651 143.41 52.651C144.523 52.651 145.079 53.9211 145.079 56.4613C145.079 56.6947 145.079 57.0492 145.079 57.525C145.079 57.9917 145.052 58.3328 144.999 58.5482C144.936 58.8175 144.743 58.9521 144.42 58.9521C144.204 58.9521 144.096 58.8085 144.096 58.5213L144.11 57.7673C144.11 56.7261 144.074 56.017 144.002 55.64C143.939 55.2541 143.877 54.9489 143.814 54.7245C143.661 54.2398 143.414 53.9974 143.073 53.9974C142.624 53.9974 142.31 54.159 142.131 54.4821C141.933 54.8322 141.817 55.2451 141.781 55.7208C141.718 56.5556 141.686 57.4397 141.686 58.3732C141.686 58.5527 141.619 58.6963 141.484 58.804C141.35 58.9118 141.188 58.9656 141 58.9656C140.775 58.9656 140.663 58.822 140.663 58.5348ZM153.099 52.6645C153.494 52.6645 153.691 53.0011 153.691 53.6743C153.691 53.7461 153.691 53.8224 153.691 53.9032L153.664 54.8457C153.655 55.1419 153.651 55.4336 153.651 55.7208L153.853 58.7637C153.853 58.9881 153.624 59.1003 153.166 59.1003C153.139 59.1003 153.072 59.1003 152.964 59.1003C152.865 59.1003 152.794 59.0599 152.749 58.9791C152.713 58.8983 152.708 58.7996 152.735 58.6829C152.771 58.5662 152.762 58.436 152.708 58.2924C152.295 58.7322 151.748 58.9521 151.066 58.9521C149.8 58.9521 149.167 57.9738 149.167 56.017C149.167 54.9309 149.369 54.1096 149.773 53.5531C150.186 52.9966 150.774 52.7184 151.537 52.7184C151.896 52.7184 152.255 52.7812 152.614 52.9068C152.731 52.7453 152.892 52.6645 153.099 52.6645ZM151.698 53.8897C151.187 53.8897 150.805 54.0378 150.554 54.334C150.303 54.6302 150.177 55.1733 150.177 55.9632C150.177 57.2916 150.536 57.9558 151.254 57.9558C151.443 57.9558 151.649 57.8705 151.873 57.7C152.107 57.5295 152.268 57.3365 152.358 57.1211C152.529 56.6364 152.614 56.1068 152.614 55.5323C152.614 54.9579 152.542 54.5405 152.399 54.2802C152.264 54.0199 152.031 53.8897 151.698 53.8897ZM155.126 58.5348L154.978 53.0684C154.978 52.8979 155.037 52.7587 155.153 52.651C155.27 52.5433 155.387 52.4895 155.503 52.4895C155.791 52.4895 155.957 52.6106 156.002 52.853C156.037 53.0953 156.055 53.3467 156.055 53.607C156.54 52.9697 157.146 52.651 157.873 52.651C158.986 52.651 159.543 53.9211 159.543 56.4613C159.543 56.6947 159.543 57.0492 159.543 57.525C159.543 57.9917 159.516 58.3328 159.462 58.5482C159.399 58.8175 159.206 58.9521 158.883 58.9521C158.667 58.9521 158.56 58.8085 158.56 58.5213L158.573 57.7673C158.573 56.7261 158.537 56.017 158.465 55.64C158.403 55.2541 158.34 54.9489 158.277 54.7245C158.124 54.2398 157.878 53.9974 157.536 53.9974C157.088 53.9974 156.773 54.159 156.594 54.4821C156.396 54.8322 156.28 55.2451 156.244 55.7208C156.181 56.5556 156.15 57.4397 156.15 58.3732C156.15 58.5527 156.082 58.6963 155.948 58.804C155.813 58.9118 155.651 58.9656 155.463 58.9656C155.239 58.9656 155.126 58.822 155.126 58.5348ZM161.591 50.443C161.753 50.443 161.905 50.5192 162.049 50.6718C162.192 50.8244 162.264 50.986 162.264 51.1565C162.264 51.3181 162.183 51.4842 162.022 51.6547C161.869 51.8252 161.708 51.9105 161.537 51.9105C161.367 51.9105 161.21 51.8387 161.066 51.6951C160.931 51.5515 160.864 51.3675 160.864 51.1431C160.864 50.7122 161.097 50.4789 161.564 50.443C161.573 50.443 161.582 50.443 161.591 50.443ZM162.157 57.498L162.17 58.4405C162.17 58.6111 162.103 58.7547 161.968 58.8714C161.833 58.9791 161.69 59.0329 161.537 59.0329C161.313 59.0329 161.196 58.9207 161.187 58.6963C161.07 55.833 161.012 54.2488 161.012 53.9436C161.012 53.6384 161.026 53.2659 161.053 52.8261C161.07 52.6645 161.174 52.5837 161.362 52.5837C161.838 52.5837 162.107 52.7767 162.17 53.1627C162.197 53.3601 162.21 53.5172 162.21 53.6339L162.157 54.4821V57.498ZM164.481 58.9656C164.247 58.9656 164.108 58.8355 164.063 58.5752C164.063 56.762 163.956 55.1463 163.74 53.7281C163.74 53.5486 163.803 53.3871 163.929 53.2434C164.063 53.0998 164.212 53.028 164.373 53.028C164.544 53.028 164.669 53.1223 164.75 53.3108C165.082 52.8709 165.527 52.651 166.083 52.651C166.792 52.651 167.34 52.9921 167.726 53.6743C168.174 53.028 168.767 52.7049 169.503 52.7049C170.248 52.7049 170.804 53.0011 171.172 53.5935C171.415 53.9615 171.585 54.4462 171.684 55.0476C171.783 55.649 171.832 56.5017 171.832 57.6058C171.832 58.0366 171.787 58.3732 171.698 58.6156C171.608 58.8489 171.419 58.9656 171.132 58.9656C170.899 58.9656 170.782 58.8175 170.782 58.5213L170.822 56.8383C170.822 54.8187 170.297 53.8089 169.247 53.8089C168.915 53.8089 168.682 53.9256 168.547 54.159C168.394 54.4372 168.305 54.729 168.278 55.0341C168.242 55.5727 168.224 56.0619 168.224 56.5017V58.454C168.224 58.5976 168.152 58.7188 168.008 58.8175C167.865 58.9162 167.717 58.9656 167.564 58.9656C167.367 58.9656 167.241 58.8355 167.187 58.5752L167.228 55.7881C167.228 54.8008 167.061 54.1859 166.729 53.9436C166.568 53.8269 166.321 53.7685 165.989 53.7685C165.666 53.7685 165.423 53.8897 165.262 54.1321C165.109 54.3744 165.033 54.7649 165.033 55.3034L165.114 57.8077C165.114 58.5796 164.903 58.9656 164.481 58.9656ZM176.621 52.6645C177.016 52.6645 177.214 53.0011 177.214 53.6743C177.214 53.7461 177.214 53.8224 177.214 53.9032L177.187 54.8457C177.178 55.1419 177.173 55.4336 177.173 55.7208L177.375 58.7637C177.375 58.9881 177.146 59.1003 176.688 59.1003C176.662 59.1003 176.594 59.1003 176.486 59.1003C176.388 59.1003 176.316 59.0599 176.271 58.9791C176.235 58.8983 176.231 58.7996 176.258 58.6829C176.293 58.5662 176.285 58.436 176.231 58.2924C175.818 58.7322 175.27 58.9521 174.588 58.9521C173.322 58.9521 172.69 57.9738 172.69 56.017C172.69 54.9309 172.892 54.1096 173.296 53.5531C173.708 52.9966 174.296 52.7184 175.059 52.7184C175.418 52.7184 175.777 52.7812 176.136 52.9068C176.253 52.7453 176.415 52.6645 176.621 52.6645ZM175.221 53.8897C174.709 53.8897 174.328 54.0378 174.076 54.334C173.825 54.6302 173.699 55.1733 173.699 55.9632C173.699 57.2916 174.058 57.9558 174.777 57.9558C174.965 57.9558 175.172 57.8705 175.396 57.7C175.629 57.5295 175.791 57.3365 175.881 57.1211C176.051 56.6364 176.136 56.1068 176.136 55.5323C176.136 54.9579 176.065 54.5405 175.921 54.2802C175.786 54.0199 175.553 53.8897 175.221 53.8897ZM178.097 50.241C178.124 49.8999 178.178 49.68 178.258 49.5813C178.348 49.4736 178.487 49.4197 178.676 49.4197C179.062 49.4197 179.255 49.5768 179.255 49.8909C179.255 50.1333 179.232 50.7661 179.187 51.7893C179.151 52.8126 179.134 53.7281 179.134 54.536C179.134 55.3438 179.165 55.9946 179.228 56.4883C179.335 57.3499 179.488 57.7808 179.686 57.7808C179.883 57.7808 180.031 57.6417 180.13 57.3634C180.175 57.2557 180.247 57.1614 180.345 57.0807C180.444 56.9909 180.57 56.946 180.722 56.946C181.036 56.946 181.193 57.2108 181.193 57.7404C181.193 58.0276 181.036 58.3149 180.722 58.6021C180.417 58.8803 180.112 59.0195 179.807 59.0195C179.502 59.0195 179.255 58.9701 179.066 58.8714C178.887 58.7637 178.739 58.6066 178.622 58.4001C178.514 58.1937 178.424 57.9962 178.353 57.8077C178.29 57.6102 178.245 57.3724 178.218 57.0941C178.164 56.6453 178.124 55.9273 178.097 54.9399C178.079 53.9436 178.07 52.9966 178.07 52.099C178.07 51.1924 178.079 50.5731 178.097 50.241ZM184.776 50.241C184.803 49.8999 184.857 49.68 184.938 49.5813C185.027 49.4736 185.167 49.4197 185.355 49.4197C185.741 49.4197 185.934 49.5768 185.934 49.8909C185.934 50.1333 185.912 50.7661 185.867 51.7893C185.831 52.8126 185.813 53.7281 185.813 54.536C185.813 55.3438 185.844 55.9946 185.907 56.4883C186.015 57.3499 186.167 57.7808 186.365 57.7808C186.562 57.7808 186.71 57.6417 186.809 57.3634C186.854 57.2557 186.926 57.1614 187.025 57.0807C187.123 56.9909 187.249 56.946 187.402 56.946C187.716 56.946 187.873 57.2108 187.873 57.7404C187.873 58.0276 187.716 58.3149 187.402 58.6021C187.096 58.8803 186.791 59.0195 186.486 59.0195C186.181 59.0195 185.934 58.9701 185.746 58.8714C185.566 58.7637 185.418 58.6066 185.301 58.4001C185.194 58.1937 185.104 57.9962 185.032 57.8077C184.969 57.6102 184.924 57.3724 184.897 57.0941C184.843 56.6453 184.803 55.9273 184.776 54.9399C184.758 53.9436 184.749 52.9966 184.749 52.099C184.749 51.1924 184.758 50.5731 184.776 50.241ZM190.332 52.7184C190.807 52.7184 191.261 52.8575 191.692 53.1357C192.122 53.414 192.338 53.7596 192.338 54.1725C192.338 54.5764 192.163 54.9713 191.813 55.3573C191.463 55.7343 190.996 55.9632 190.412 56.0439C190.161 56.0798 189.784 56.0978 189.282 56.0978C189.38 56.8608 189.573 57.3634 189.86 57.6058C189.95 57.7045 190.071 57.7539 190.224 57.7539C190.78 57.7539 191.247 57.5788 191.624 57.2288C192.001 56.8697 192.271 56.6902 192.432 56.6902C192.504 56.6902 192.612 56.7575 192.755 56.8922C192.899 57.0268 192.971 57.1525 192.971 57.2692C192.971 57.5025 192.688 57.8391 192.122 58.279C191.871 58.4854 191.566 58.6604 191.207 58.804C190.857 58.9387 190.529 59.006 190.224 59.006C189.443 59.006 188.869 58.5034 188.501 57.498C188.267 56.8787 188.151 56.1965 188.151 55.4515C188.151 54.7065 188.326 54.0647 188.676 53.5262C189.026 52.9876 189.578 52.7184 190.332 52.7184ZM190.399 53.6474C190.058 53.6474 189.766 53.8403 189.524 54.2263C189.434 54.361 189.349 54.6661 189.268 55.1419C190.525 55.1419 191.153 54.8322 191.153 54.2128C191.153 53.8359 190.902 53.6474 190.399 53.6474ZM197.514 52.6645C197.909 52.6645 198.106 53.0011 198.106 53.6743C198.106 53.7461 198.106 53.8224 198.106 53.9032L198.079 54.8457C198.07 55.1419 198.066 55.4336 198.066 55.7208L198.268 58.7637C198.268 58.9881 198.039 59.1003 197.581 59.1003C197.554 59.1003 197.487 59.1003 197.379 59.1003C197.28 59.1003 197.209 59.0599 197.164 58.9791C197.128 58.8983 197.123 58.7996 197.15 58.6829C197.186 58.5662 197.177 58.436 197.123 58.2924C196.711 58.7322 196.163 58.9521 195.481 58.9521C194.215 58.9521 193.582 57.9738 193.582 56.017C193.582 54.9309 193.784 54.1096 194.188 53.5531C194.601 52.9966 195.189 52.7184 195.952 52.7184C196.311 52.7184 196.67 52.7812 197.029 52.9068C197.146 52.7453 197.307 52.6645 197.514 52.6645ZM196.114 53.8897C195.602 53.8897 195.221 54.0378 194.969 54.334C194.718 54.6302 194.592 55.1733 194.592 55.9632C194.592 57.2916 194.951 57.9558 195.669 57.9558C195.858 57.9558 196.064 57.8705 196.289 57.7C196.522 57.5295 196.684 57.3365 196.773 57.1211C196.944 56.6364 197.029 56.1068 197.029 55.5323C197.029 54.9579 196.957 54.5405 196.814 54.2802C196.679 54.0199 196.446 53.8897 196.114 53.8897ZM200.767 56.9864L200.78 58.3732C200.78 58.5348 200.704 58.6829 200.551 58.8175C200.408 58.9521 200.264 59.0195 200.12 59.0195C199.914 59.0195 199.784 58.8579 199.73 58.5348C199.721 58.463 199.685 57.8077 199.622 56.569C199.559 55.3214 199.438 54.343 199.259 53.6339C199.178 53.2928 199.138 53.0909 199.138 53.028C199.138 52.7318 199.317 52.5837 199.676 52.5837C199.829 52.5837 199.95 52.6421 200.04 52.7587C200.129 52.8754 200.183 52.9966 200.201 53.1223C200.228 53.239 200.251 53.4005 200.269 53.607C200.287 53.8134 200.3 53.9436 200.309 53.9974C200.497 53.5486 200.78 53.212 201.157 52.9876C201.534 52.7632 201.947 52.651 202.396 52.651C203.132 52.651 203.5 52.8395 203.5 53.2165C203.5 53.405 203.433 53.5576 203.298 53.6743C203.172 53.782 203.024 53.8359 202.854 53.8359C202.091 53.8359 201.552 54.0782 201.238 54.5629C200.924 55.0476 200.767 55.8554 200.767 56.9864ZM204.722 58.5348L204.574 53.0684C204.574 52.8979 204.632 52.7587 204.749 52.651C204.866 52.5433 204.982 52.4895 205.099 52.4895C205.386 52.4895 205.552 52.6106 205.597 52.853C205.633 53.0953 205.651 53.3467 205.651 53.607C206.136 52.9697 206.742 52.651 207.469 52.651C208.582 52.651 209.138 53.9211 209.138 56.4613C209.138 56.6947 209.138 57.0492 209.138 57.525C209.138 57.9917 209.111 58.3328 209.057 58.5482C208.995 58.8175 208.802 58.9521 208.478 58.9521C208.263 58.9521 208.155 58.8085 208.155 58.5213L208.169 57.7673C208.169 56.7261 208.133 56.017 208.061 55.64C207.998 55.2541 207.935 54.9489 207.873 54.7245C207.72 54.2398 207.473 53.9974 207.132 53.9974C206.683 53.9974 206.369 54.159 206.19 54.4821C205.992 54.8322 205.875 55.2451 205.839 55.7208C205.777 56.5556 205.745 57.4397 205.745 58.3732C205.745 58.5527 205.678 58.6963 205.543 58.804C205.409 58.9118 205.247 58.9656 205.059 58.9656C204.834 58.9656 204.722 58.822 204.722 58.5348ZM211.187 50.443C211.348 50.443 211.501 50.5192 211.644 50.6718C211.788 50.8244 211.86 50.986 211.86 51.1565C211.86 51.3181 211.779 51.4842 211.618 51.6547C211.465 51.8252 211.303 51.9105 211.133 51.9105C210.962 51.9105 210.805 51.8387 210.662 51.6951C210.527 51.5515 210.46 51.3675 210.46 51.1431C210.46 50.7122 210.693 50.4789 211.16 50.443C211.169 50.443 211.178 50.443 211.187 50.443ZM211.752 57.498L211.766 58.4405C211.766 58.6111 211.698 58.7547 211.564 58.8714C211.429 58.9791 211.285 59.0329 211.133 59.0329C210.908 59.0329 210.792 58.9207 210.783 58.6963C210.666 55.833 210.608 54.2488 210.608 53.9436C210.608 53.6384 210.621 53.2659 210.648 52.8261C210.666 52.6645 210.769 52.5837 210.958 52.5837C211.434 52.5837 211.703 52.7767 211.766 53.1627C211.793 53.3601 211.806 53.5172 211.806 53.6339L211.752 54.4821V57.498ZM213.821 58.5348L213.673 53.0684C213.673 52.8979 213.731 52.7587 213.848 52.651C213.964 52.5433 214.081 52.4895 214.198 52.4895C214.485 52.4895 214.651 52.6106 214.696 52.853C214.732 53.0953 214.75 53.3467 214.75 53.607C215.234 52.9697 215.84 52.651 216.567 52.651C217.68 52.651 218.237 53.9211 218.237 56.4613C218.237 56.6947 218.237 57.0492 218.237 57.525C218.237 57.9917 218.21 58.3328 218.156 58.5482C218.093 58.8175 217.9 58.9521 217.577 58.9521C217.362 58.9521 217.254 58.8085 217.254 58.5213L217.267 57.7673C217.267 56.7261 217.232 56.017 217.16 55.64C217.097 55.2541 217.034 54.9489 216.971 54.7245C216.819 54.2398 216.572 53.9974 216.231 53.9974C215.782 53.9974 215.468 54.159 215.288 54.4821C215.091 54.8322 214.974 55.2451 214.938 55.7208C214.875 56.5556 214.844 57.4397 214.844 58.3732C214.844 58.5527 214.777 58.6963 214.642 58.804C214.507 58.9118 214.346 58.9656 214.157 58.9656C213.933 58.9656 213.821 58.822 213.821 58.5348ZM223.261 58.4001C222.938 58.7771 222.529 58.9656 222.036 58.9656C221.542 58.9656 221.116 58.813 220.757 58.5078C220.003 57.9244 219.626 57.0313 219.626 55.8285C219.626 54.886 219.886 54.1321 220.407 53.5666C220.927 52.9921 221.569 52.7049 222.332 52.7049C223.095 52.7049 223.615 52.9652 223.894 53.4858C224.136 53.9436 224.257 54.6347 224.257 55.5592L224.23 56.6633C224.23 57.1839 224.253 57.9065 224.298 58.831C224.351 59.7465 224.378 60.4377 224.378 60.9044C224.378 61.6763 224.185 62.2418 223.799 62.6009C223.422 62.9689 222.843 63.1529 222.063 63.1529C221.596 63.1529 221.12 63.0542 220.635 62.8567C220.151 62.6592 219.908 62.4303 219.908 62.17C219.908 61.9815 219.958 61.8379 220.056 61.7392C220.164 61.6404 220.285 61.5911 220.42 61.5911C220.555 61.5911 220.855 61.6898 221.322 61.8873C221.798 62.0848 222.139 62.1835 222.345 62.1835C222.992 62.1835 223.315 61.6539 223.315 60.5947C223.315 59.5356 223.297 58.804 223.261 58.4001ZM223.247 55.5592C223.247 54.904 223.149 54.4462 222.951 54.1859C222.763 53.9166 222.462 53.782 222.049 53.782C221.636 53.782 221.304 53.9705 221.053 54.3475C220.801 54.7245 220.676 55.2047 220.676 55.7881C220.676 56.3626 220.792 56.8204 221.026 57.1614C221.268 57.5025 221.636 57.6731 222.13 57.6731C222.624 57.6731 222.942 57.4621 223.086 57.0403C223.194 56.6992 223.247 56.2055 223.247 55.5592ZM152.842 70.6645C153.237 70.6645 153.435 71.0011 153.435 71.6743C153.435 71.7461 153.435 71.8224 153.435 71.9032L153.408 72.8457C153.399 73.1419 153.394 73.4336 153.394 73.7208L153.596 76.7637C153.596 76.9881 153.367 77.1003 152.91 77.1003C152.883 77.1003 152.815 77.1003 152.708 77.1003C152.609 77.1003 152.537 77.0599 152.492 76.9791C152.456 76.8983 152.452 76.7996 152.479 76.6829C152.515 76.5662 152.506 76.436 152.452 76.2924C152.039 76.7322 151.491 76.9521 150.809 76.9521C149.544 76.9521 148.911 75.9738 148.911 74.017C148.911 72.9309 149.113 72.1096 149.517 71.5531C149.93 70.9966 150.518 70.7184 151.28 70.7184C151.64 70.7184 151.999 70.7812 152.358 70.9068C152.474 70.7453 152.636 70.6645 152.842 70.6645ZM151.442 71.8897C150.93 71.8897 150.549 72.0378 150.298 72.334C150.046 72.6302 149.921 73.1733 149.921 73.9632C149.921 75.2916 150.28 75.9558 150.998 75.9558C151.186 75.9558 151.393 75.8705 151.617 75.7C151.85 75.5295 152.012 75.3365 152.102 75.1211C152.272 74.6364 152.358 74.1068 152.358 73.5323C152.358 72.9579 152.286 72.5405 152.142 72.2802C152.008 72.0199 151.774 71.8897 151.442 71.8897ZM156.486 76.9387C156.18 76.9387 155.898 76.8355 155.637 76.629C155.637 76.629 155.579 76.5796 155.462 76.4809V80.5201C155.409 80.6996 155.314 80.8477 155.18 80.9644C155.045 81.0901 154.901 81.1529 154.749 81.1529C154.515 81.1529 154.399 80.9958 154.399 80.6817V71.2973C154.453 71.0639 154.515 70.8979 154.587 70.7991C154.668 70.7004 154.789 70.651 154.951 70.651C155.121 70.651 155.229 70.6914 155.274 70.7722C155.328 70.844 155.391 71.0505 155.462 71.3916C155.498 71.212 155.642 71.046 155.893 70.8934C156.145 70.7408 156.481 70.6645 156.903 70.6645C157.819 70.6645 158.469 70.9966 158.855 71.6608C159.241 72.325 159.434 73.1104 159.434 74.017C159.434 74.9146 159.169 75.6282 158.64 76.1578C158.119 76.6784 157.401 76.9387 156.486 76.9387ZM155.462 72.8995V75.4038C155.516 75.4307 155.579 75.4756 155.651 75.5384C155.911 75.7718 156.194 75.8885 156.499 75.8885C157.738 75.8885 158.357 75.2512 158.357 73.9766C158.357 72.8905 158.079 72.2039 157.522 71.9166C157.289 71.791 157.002 71.7281 156.661 71.7281C156.329 71.773 156.046 71.9211 155.812 72.1725C155.579 72.4148 155.462 72.6572 155.462 72.8995ZM162.245 76.9387C161.939 76.9387 161.657 76.8355 161.396 76.629C161.396 76.629 161.338 76.5796 161.221 76.4809V80.5201C161.168 80.6996 161.073 80.8477 160.939 80.9644C160.804 81.0901 160.66 81.1529 160.508 81.1529C160.274 81.1529 160.158 80.9958 160.158 80.6817V71.2973C160.212 71.0639 160.274 70.8979 160.346 70.7991C160.427 70.7004 160.548 70.651 160.71 70.651C160.88 70.651 160.988 70.6914 161.033 70.7722C161.087 70.844 161.15 71.0505 161.221 71.3916C161.257 71.212 161.401 71.046 161.652 70.8934C161.904 70.7408 162.24 70.6645 162.662 70.6645C163.578 70.6645 164.228 70.9966 164.614 71.6608C165 72.325 165.193 73.1104 165.193 74.017C165.193 74.9146 164.928 75.6282 164.399 76.1578C163.878 76.6784 163.16 76.9387 162.245 76.9387ZM161.221 72.8995V75.4038C161.275 75.4307 161.338 75.4756 161.41 75.5384C161.67 75.7718 161.953 75.8885 162.258 75.8885C163.497 75.8885 164.116 75.2512 164.116 73.9766C164.116 72.8905 163.838 72.2039 163.281 71.9166C163.048 71.791 162.761 71.7281 162.42 71.7281C162.088 71.773 161.805 71.9211 161.571 72.1725C161.338 72.4148 161.221 72.6572 161.221 72.8995ZM170.81 67.5274C170.954 67.4197 171.075 67.3614 171.174 67.3524C171.282 67.3344 171.52 67.3254 171.888 67.3254C172.265 67.3254 172.574 67.3793 172.817 67.487C173.059 67.5947 173.18 67.8101 173.18 68.1333C173.18 68.4564 173.05 68.618 172.79 68.618C172.736 68.618 172.583 68.5731 172.332 68.4833C172.081 68.3846 171.919 68.3352 171.847 68.3352C171.533 68.3352 171.345 68.5237 171.282 68.9007C171.264 69.0354 171.255 69.3136 171.255 69.7355C171.255 70.1484 171.255 70.4895 171.255 70.7587H172.197C172.592 70.7767 172.79 70.9158 172.79 71.1761C172.79 71.5531 172.52 71.7506 171.982 71.7685C171.901 71.7775 171.802 71.782 171.686 71.782C171.569 71.782 171.434 71.7775 171.282 71.7685C171.3 72.1276 171.34 72.7694 171.403 73.6939C171.466 74.6094 171.497 75.5025 171.497 76.3732C171.497 76.5527 171.425 76.6963 171.282 76.804C171.138 76.9118 170.99 76.9656 170.837 76.9656C170.595 76.9656 170.474 76.822 170.474 76.5348C170.474 75.7269 170.442 74.9415 170.38 74.1786C170.317 73.4156 170.272 72.6123 170.245 71.7685C169.437 71.7685 168.966 71.6878 168.831 71.5262C168.777 71.4634 168.75 71.3826 168.75 71.2838C168.75 71.0505 168.845 70.8979 169.033 70.8261C169.231 70.7543 169.455 70.7184 169.706 70.7184C169.958 70.7184 170.137 70.7184 170.245 70.7184C170.272 69.2553 170.353 68.3487 170.487 67.9986C170.568 67.7832 170.676 67.6261 170.81 67.5274ZM176.201 70.678C176.847 70.678 177.377 70.9876 177.79 71.607C178.212 72.2263 178.423 72.9713 178.423 73.842C178.423 74.7037 178.207 75.4397 177.776 76.0501C177.354 76.6604 176.789 76.9656 176.08 76.9656C175.38 76.9656 174.814 76.6559 174.383 76.0366C173.953 75.4083 173.737 74.7126 173.737 73.9497C173.737 72.9713 173.935 72.1904 174.33 71.607C174.751 70.9876 175.375 70.678 176.201 70.678ZM176.039 71.782C175.662 71.782 175.353 71.9795 175.11 72.3744C174.868 72.7694 174.747 73.1867 174.747 73.6266C174.747 74.3087 174.882 74.8293 175.151 75.1884C175.42 75.5474 175.725 75.7269 176.066 75.7269C176.677 75.7269 177.067 75.4621 177.238 74.9326C177.31 74.6812 177.345 74.3671 177.345 73.9901C177.345 72.518 176.91 71.782 176.039 71.782ZM180.985 74.9864L180.999 76.3732C180.999 76.5348 180.922 76.6829 180.77 76.8175C180.626 76.9521 180.482 77.0195 180.339 77.0195C180.132 77.0195 180.002 76.8579 179.948 76.5348C179.939 76.463 179.903 75.8077 179.841 74.569C179.778 73.3214 179.657 72.343 179.477 71.6339C179.396 71.2928 179.356 71.0909 179.356 71.028C179.356 70.7318 179.535 70.5837 179.894 70.5837C180.047 70.5837 180.168 70.6421 180.258 70.7587C180.348 70.8754 180.402 70.9966 180.42 71.1223C180.446 71.239 180.469 71.4005 180.487 71.607C180.505 71.8134 180.518 71.9436 180.527 71.9974C180.716 71.5486 180.999 71.212 181.376 70.9876C181.752 70.7632 182.165 70.651 182.614 70.651C183.35 70.651 183.718 70.8395 183.718 71.2165C183.718 71.405 183.651 71.5576 183.516 71.6743C183.391 71.782 183.243 71.8359 183.072 71.8359C182.309 71.8359 181.77 72.0782 181.456 72.5629C181.142 73.0476 180.985 73.8554 180.985 74.9864ZM192.338 76.3463C192.338 76.7681 192.145 76.9791 191.759 76.9791C191.598 76.9791 191.378 76.5841 191.1 75.7943C190.821 74.9954 190.449 74.3805 189.982 73.9497C189.937 74.0125 189.744 74.192 189.403 74.4883C189.071 74.7755 188.874 74.9505 188.811 75.0133V76.3597C188.793 76.4944 188.77 76.5976 188.743 76.6694C188.716 76.7412 188.654 76.8085 188.555 76.8714C188.465 76.9342 188.34 76.9656 188.178 76.9656C187.936 76.9656 187.814 76.8175 187.814 76.5213C187.814 75.6865 187.779 74.394 187.707 72.6437C187.635 70.8844 187.599 69.3091 187.599 67.9179C187.599 67.7473 187.666 67.6127 187.801 67.5139C187.945 67.4152 188.093 67.3658 188.245 67.3658C188.452 67.3658 188.577 67.496 188.622 67.7563V70.1394C188.622 70.4266 188.627 70.6421 188.636 70.7857C188.645 70.9293 188.654 71.1447 188.663 71.4319C188.681 72.0244 188.712 72.6931 188.757 73.4381C189.017 73.2406 189.349 72.9309 189.753 72.5091C190.166 72.0782 190.476 71.7102 190.682 71.405C191.005 70.8934 191.302 70.6376 191.571 70.6376C191.643 70.6376 191.714 70.6555 191.786 70.6914C191.975 70.7991 192.069 70.9248 192.069 71.0684C192.069 71.212 192.006 71.4005 191.881 71.6339C191.557 72.1904 191.185 72.6976 190.763 73.1553C191.167 73.6041 191.571 74.2459 191.975 75.0807C192.217 75.6192 192.338 76.0411 192.338 76.3463ZM194.008 68.443C194.17 68.443 194.323 68.5192 194.466 68.6718C194.61 68.8244 194.682 68.986 194.682 69.1565C194.682 69.3181 194.601 69.4842 194.439 69.6547C194.287 69.8252 194.125 69.9105 193.954 69.9105C193.784 69.9105 193.627 69.8387 193.483 69.6951C193.349 69.5515 193.281 69.3675 193.281 69.1431C193.281 68.7122 193.515 68.4789 193.981 68.443C193.99 68.443 193.999 68.443 194.008 68.443ZM194.574 75.498L194.587 76.4405C194.587 76.6111 194.52 76.7547 194.385 76.8714C194.251 76.9791 194.107 77.0329 193.954 77.0329C193.73 77.0329 193.613 76.9207 193.604 76.6963C193.488 73.833 193.429 72.2488 193.429 71.9436C193.429 71.6384 193.443 71.2659 193.47 70.8261C193.488 70.6645 193.591 70.5837 193.779 70.5837C194.255 70.5837 194.524 70.7767 194.587 71.1627C194.614 71.3601 194.628 71.5172 194.628 71.6339L194.574 72.4821V75.498ZM199.349 70.651L199.335 68.0525C199.335 67.5678 199.488 67.3254 199.793 67.3254C200.107 67.3254 200.282 67.4601 200.318 67.7294C200.336 67.8461 200.358 68.5507 200.385 69.8432C200.412 71.1357 200.453 72.3475 200.506 73.4785C200.569 74.6094 200.601 75.6641 200.601 76.6425C200.601 76.9118 200.399 77.0464 199.995 77.0464C199.726 77.0464 199.591 76.8579 199.591 76.4809C199.205 76.7861 198.747 76.9387 198.218 76.9387C197.544 76.9387 196.997 76.6874 196.575 76.1847C196.162 75.6821 195.956 75.0627 195.956 74.3267C195.956 73.5907 196.104 72.904 196.4 72.2667C196.705 71.6204 197.176 71.1582 197.814 70.8799C198.209 70.7094 198.59 70.6241 198.958 70.6241C199.093 70.6241 199.223 70.6331 199.349 70.651ZM199.416 72.4956C199.353 72.2981 199.277 72.15 199.187 72.0513C199.097 71.9436 198.999 71.8807 198.891 71.8628C198.792 71.8359 198.671 71.8224 198.527 71.8224C198.384 71.8224 198.209 71.8763 198.002 71.984C197.796 72.0917 197.621 72.2667 197.477 72.5091C197.19 72.9938 197.046 73.5054 197.046 74.0439C197.046 74.5735 197.149 75.0089 197.356 75.3499C197.571 75.6821 197.872 75.8481 198.258 75.8481C198.653 75.8481 198.963 75.6551 199.187 75.2692C199.411 74.8832 199.524 74.3895 199.524 73.7881C199.524 73.1149 199.488 72.6841 199.416 72.4956ZM201.606 72.3744C201.606 71.8448 201.794 71.423 202.171 71.1088C202.548 70.7946 202.984 70.6376 203.477 70.6376C203.98 70.6376 204.46 70.7273 204.918 70.9068C205.376 71.0864 205.605 71.3242 205.605 71.6204C205.605 71.773 205.546 71.8942 205.43 71.984C205.313 72.0737 205.21 72.1186 205.12 72.1186C205.039 72.1186 204.972 72.1186 204.918 72.1186C204.873 72.1096 204.694 72.0244 204.379 71.8628C204.074 71.7012 203.791 71.6204 203.531 71.6204C203.271 71.6204 203.046 71.6878 202.858 71.8224C202.678 71.9481 202.589 72.1366 202.589 72.3879C202.589 72.6392 202.692 72.8367 202.898 72.9803C203.114 73.1239 203.486 73.2496 204.016 73.3573C204.545 73.456 204.949 73.5996 205.228 73.7881C205.515 73.9766 205.658 74.3267 205.658 74.8383C205.658 75.5833 205.461 76.1129 205.066 76.4271C204.68 76.7322 204.209 76.8848 203.652 76.8848C203.096 76.8848 202.62 76.8085 202.225 76.6559C201.839 76.5034 201.646 76.2745 201.646 75.9693C201.646 75.6192 201.821 75.4442 202.171 75.4442C202.261 75.4442 202.458 75.507 202.764 75.6327C203.069 75.7583 203.37 75.8212 203.666 75.8212C203.971 75.8212 204.2 75.7269 204.352 75.5384C204.514 75.341 204.595 75.1166 204.595 74.8652C204.595 74.6139 204.492 74.4344 204.285 74.3267C204.079 74.21 203.764 74.1157 203.343 74.0439C202.921 73.9721 202.611 73.8958 202.414 73.8151C201.875 73.5996 201.606 73.1194 201.606 72.3744ZM208.254 67.689L208.133 72.2802C208.133 72.7738 208.137 73.097 208.146 73.2496C208.11 73.3663 208.038 73.4695 207.931 73.5592C207.832 73.649 207.72 73.6939 207.594 73.6939C207.468 73.6939 207.365 73.5951 207.284 73.3977C207.15 71.1357 207.082 69.2328 207.082 67.689C207.163 67.4646 207.37 67.3524 207.702 67.3524C208.034 67.3524 208.218 67.4646 208.254 67.689ZM207.325 76.3059C207.19 76.1443 207.123 75.9827 207.123 75.8212C207.123 75.6596 207.186 75.5115 207.311 75.3769C207.437 75.2422 207.603 75.1749 207.809 75.1749C208.025 75.1749 208.178 75.2153 208.267 75.2961C208.366 75.3769 208.415 75.5519 208.415 75.8212C208.415 76.2969 208.218 76.5348 207.823 76.5348C207.625 76.5348 207.459 76.4585 207.325 76.3059Z" fill="#13644D"/>
</g>
<defs>
<filter id="filter0_d_128_847" x="0" y="0" width="383.443" height="387.167" filterUnits="userSpaceOnUse" color-interpolation-filters="sRGB">
<feFlood flood-opacity="0" result="BackgroundImageFix"/>
<feColorMatrix in="SourceAlpha" type="matrix" values="0 0 0 0 0 0 0 0 0 0 0 0 0 0 0 0 0 0 127 0" result="hardAlpha"/>
<feMorphology radius="1.8617" operator="dilate" in="SourceAlpha" result="effect1_dropShadow_128_847"/>
<feOffset dx="13.6525" dy="17.3759"/>
<feGaussianBlur stdDeviation="4.96454"/>
<feComposite in2="hardAlpha" operator="out"/>
<feColorMatrix type="matrix" values="0 0 0 0 0 0 0 0 0 0 0 0 0 0 0 0 0 0 0.37 0"/>
<feBlend mode="normal" in2="BackgroundImageFix" result="effect1_dropShadow_128_847"/>
<feBlend mode="normal" in="SourceGraphic" in2="effect1_dropShadow_128_847" result="shape"/>
</filter>
</defs>
</svg>
