<svg width="851" height="1140" viewBox="0 0 851 1140" fill="none" xmlns="http://www.w3.org/2000/svg">
<path d="M12.7821 894.25C403.923 856.25 675.131 1014.64 1169.14 1065.43M24.5396 845.86C423.339 729.306 590.914 966.712 1157.31 992.184M36.3462 797.15C450.339 624.15 531.758 927.239 1145.53 919.28M48.1283 748.146C482.642 538.276 494.669 893.685 1133.72 846.695M59.9104 698.823C517.963 469.13 476.824 863.57 1121.94 774.454M71.717 649.18C554.046 414.206 475.351 834.413 1110.18 702.557M83.4991 599.218C588.631 370.925 487.33 803.684 1098.4 630.954M95.2812 548.937C619.412 336.831 509.888 768.927 1086.65 559.696M107.063 498.312C644.179 309.345 540.128 727.611 1074.91 488.732M118.845 447.392C660.6 285.961 575.18 677.281 1063.15 418.112M130.627 396.128C666.467 264.148 612.171 615.43 1051.42 347.811M142.385 344.544C659.447 241.402 648.18 539.554 1039.66 277.805M154.143 292.617C637.306 215.144 680.335 447.146 1027.93 208.119M165.875 240.371C597.762 182.892 705.765 335.775 1016.17 138.776M177.608 187.805C538.582 142.117 721.572 202.887 1004.42 69.7285M942.462 9.42526C1003.04 463.431 943.714 735.717 1107.17 1126.69M892.265 17.8505C960.503 536.016 797.542 714.814 1033.38 1114.41M842.069 26.2512C925.525 587.01 676.383 685.436 959.595 1102.11M791.872 34.6274C895.825 618.844 577.316 650.187 885.81 1089.77M741.676 43.0035C869.168 634.098 497.492 611.549 812.025 1077.44M691.504 51.3796C843.296 635.228 434.041 572.076 738.313 1065.14M641.307 59.7312C815.878 624.69 384.04 534.272 664.552 1052.83M591.11 68.0828C784.68 605.04 344.595 500.694 590.816 1040.5M540.938 76.4343C747.493 578.732 312.882 473.846 517.104 1028.19M490.717 84.7859C701.911 548.298 285.955 456.259 443.368 1015.91M440.521 93.1375C645.799 516.194 260.967 450.462 369.656 1003.63M390.3 101.465C576.8 484.875 234.973 458.961 295.92 991.325M340.078 109.816C492.681 456.947 205.174 484.335 222.209 979.043M289.833 118.168C391.159 434.815 168.6 529.065 148.472 966.786M239.587 126.519C270 420.986 122.454 595.681 74.7362 954.528M189.317 134.895C457.457 90.2636 724.886 46.0248 992.658 1C1055.42 366.75 1117.79 745.715 1181 1139C787.209 1073.44 394.325 1007.49 1 942.321C63.7641 686.738 126.896 417.989 189.317 134.895Z" stroke="#890620" stroke-opacity="0.5" stroke-miterlimit="10"/>
</svg>
