<svg width="127" height="62" viewBox="0 0 127 62" fill="none" xmlns="http://www.w3.org/2000/svg">
<path d="M64.62 50.6C64.22 52.4 63.35 53.84 62.03 54.92C60.71 56 59.17 56.54 57.41 56.54H36.06C34.26 56.39 32.93 55.82 32.07 54.81C31.21 53.8 30.98 52.4 31.38 50.6L32.81 43.89H45.47L43.76 51.81H51.68L58.72 18.57H71.38L64.61 50.6H64.62Z" fill="#625D9C"/>
<path d="M57.41 55.79H36.04C34.53 55.66 33.35 55.15 32.64 54.32C31.93 53.49 31.76 52.33 32.11 50.76L33.42 44.63H44.54L42.83 52.55H52.29L59.33 19.31H70.45L70.39 19.61L63.88 50.43C63.51 52.07 62.75 53.34 61.55 54.33C60.36 55.31 59 55.78 57.4 55.78L57.41 55.79ZM36.06 55.29H57.4C58.88 55.29 60.13 54.85 61.23 53.95C62.34 53.04 63.04 51.86 63.39 50.34L69.84 19.82H59.74L52.7 53.06H42.21L43.92 45.14H33.82L32.6 50.87C32.29 52.28 32.42 53.3 33.02 54C33.64 54.73 34.7 55.18 36.07 55.29H36.06Z" fill="#F9F3ED"/>
<path d="M113.84 24.74C116.52 24.74 118.5 25.55 119.78 27.16C121.06 28.77 121.41 30.92 120.8 33.59L117.85 47.69C117.25 50.37 115.96 52.51 114 54.12C112.03 55.73 109.74 56.54 107.12 56.54H75.32C72.64 56.54 70.68 55.73 69.42 54.12C68.16 52.51 67.81 50.36 68.35 47.69L69.91 40.07H88.76L86.79 49.5H98.59L102.36 31.8H80.56C77.88 31.8 75.9 30.99 74.62 29.38C73.33 27.77 72.99 25.62 73.6 22.95L76.55 8.85C77.15 6.17 78.43 4.03 80.4 2.42C82.37 0.81 84.66 0 87.28 0H119.08C121.76 0 123.74 0.8 125.02 2.39C126.3 3.98 126.65 6.11 126.04 8.77L124.48 16.39H105.63L107.6 7.05H95.8L92.03 24.75H113.83L113.84 24.74Z" fill="#625D9C"/>
<path d="M107.12 55.79H75.32C72.86 55.79 71.13 55.09 70.01 53.66C68.88 52.22 68.58 50.31 69.09 47.84L70.53 40.82H87.85L85.88 50.25H99.21L103.3 31.05H80.57C78.11 31.05 76.36 30.35 75.22 28.92C74.07 27.48 73.79 25.59 74.34 23.12L77.29 9.01C77.85 6.52 79.06 4.5 80.88 3C82.73 1.49 84.82 0.75 87.29 0.75H119.09C121.55 0.75 123.3 1.44 124.45 2.86C125.59 4.28 125.88 6.16 125.33 8.6L123.89 15.64H106.57L108.54 6.3H95.21L91.12 25.5H113.85C116.31 25.5 118.06 26.2 119.21 27.64C120.35 29.08 120.64 30.98 120.09 33.44L117.14 47.55C116.57 50.08 115.39 52.04 113.55 53.56C111.7 55.07 109.61 55.81 107.14 55.81L107.12 55.79ZM70.93 41.32L69.58 47.94C69.11 50.26 69.38 52.03 70.41 53.36C71.43 54.66 73.03 55.3 75.33 55.3H107.13C109.48 55.3 111.47 54.6 113.22 53.17C114.98 51.73 116.1 49.85 116.64 47.44L119.59 33.33C120.11 31.02 119.85 29.26 118.81 27.94C117.77 26.63 116.14 25.99 113.85 25.99H90.5L94.8 5.79H109.16L107.19 15.13H123.48L124.84 8.49C125.36 6.2 125.1 4.46 124.06 3.17C123.02 1.87 121.39 1.24 119.09 1.24H87.29C84.95 1.24 82.95 1.94 81.2 3.37C79.46 4.79 78.31 6.72 77.78 9.1L74.83 23.21C74.31 25.52 74.57 27.28 75.61 28.6C76.65 29.91 78.28 30.55 80.57 30.55H103.92L99.62 50.75H85.27L87.24 41.32H70.93Z" fill="#F9F3ED"/>
<path d="M71.67 16.39H59.03L60.79 7.95H73.49L71.66 16.39H71.67Z" fill="#625D9C"/>
<path d="M71.07 15.64H59.96L61.41 8.7H72.57L71.07 15.64ZM60.57 15.14H70.66L71.95 9.2H61.82L60.58 15.14H60.57Z" fill="#F9F3ED"/>
<path d="M27.63 51.78C14.99 48.02 14.02 48.52 7.99999 61.72C12.32 47.87 11.92 46.85 -0.0100098 41.23C12.63 44.99 13.6 44.49 19.62 31.29C15.3 45.14 15.7 46.16 27.63 51.78Z" fill="#625D9C"/>
<path d="M10.89 54.11L11.06 52.99C11.66 48.87 10.71 46.6 7.39999 44.33L6.52999 43.74L7.56999 43.88C8.21999 43.97 8.79999 44.01 9.34999 44.01C12.27 44.01 14.17 42.84 16.13 39.85L16.75 38.9L16.58 40.02C15.98 44.14 16.93 46.41 20.24 48.68L21.11 49.27L20.07 49.13C19.43 49.04 18.84 49 18.29 49C15.37 49 13.47 50.17 11.51 53.16L10.89 54.11ZM8.42999 44.47C11.06 46.5 11.98 48.64 11.66 52.06C13.72 49.28 15.92 48.3 19.19 48.54C16.56 46.51 15.64 44.37 15.96 40.95C13.9 43.73 11.73 44.71 8.42999 44.47Z" fill="#F9F3ED"/>
</svg>
