<svg width="358" height="358" viewBox="0 0 358 358" fill="none" xmlns="http://www.w3.org/2000/svg">
<rect width="358" height="358" rx="11.2579" fill="#B9E4C9"/>
<path d="M112.533 32.4113H110.776C110.642 32.4113 110.527 32.4584 110.433 32.5527C110.339 32.6469 110.292 32.7614 110.292 32.896V35.9052C110.292 36.0398 110.244 36.1543 110.15 36.2485C110.056 36.3428 109.942 36.3899 109.807 36.3899H106.757C106.623 36.3899 106.508 36.3428 106.414 36.2485C106.32 36.1543 106.273 36.0398 106.273 35.9052V22.0912C106.273 21.9566 106.32 21.8421 106.414 21.7479C106.508 21.6536 106.623 21.6065 106.757 21.6065H112.937C113.691 21.6065 114.398 21.7479 115.058 22.0306C115.731 22.3134 116.31 22.7038 116.795 23.202C117.293 23.7001 117.683 24.2791 117.966 24.9388C118.262 25.5986 118.41 26.3054 118.41 27.0594C118.41 27.8134 118.289 28.5202 118.047 29.18C117.804 29.8262 117.434 30.3917 116.936 30.8764C116.451 31.3477 115.839 31.7246 115.098 32.0074C114.371 32.2767 113.516 32.4113 112.533 32.4113ZM112.675 25.3226H110.776C110.642 25.3226 110.527 25.3697 110.433 25.4639C110.339 25.5582 110.292 25.6726 110.292 25.8073V28.1904C110.292 28.325 110.339 28.4394 110.433 28.5337C110.527 28.6279 110.642 28.6751 110.776 28.6751H112.937C113.449 28.6751 113.819 28.5135 114.048 28.1904C114.29 27.8538 114.412 27.4768 114.412 27.0594C114.412 26.844 114.371 26.6353 114.29 26.4333C114.223 26.2179 114.115 26.0294 113.967 25.8678C113.819 25.7063 113.637 25.5784 113.422 25.4841C113.207 25.3764 112.957 25.3226 112.675 25.3226ZM119.334 28.9982C119.334 27.948 119.536 26.9584 119.94 26.0294C120.344 25.1004 120.889 24.2926 121.576 23.6059C122.262 22.9058 123.07 22.3538 123.999 21.9498C124.928 21.5459 125.918 21.344 126.968 21.344C128.018 21.344 129.008 21.5459 129.937 21.9498C130.866 22.3538 131.674 22.9058 132.36 23.6059C133.06 24.2926 133.612 25.1004 134.016 26.0294C134.42 26.9584 134.622 27.948 134.622 28.9982C134.622 30.0484 134.42 31.038 134.016 31.967C133.612 32.896 133.06 33.7106 132.36 34.4107C131.674 35.0974 130.866 35.6426 129.937 36.0466C129.008 36.4505 128.018 36.6524 126.968 36.6524C125.918 36.6524 124.928 36.4505 123.999 36.0466C123.07 35.6426 122.262 35.0974 121.576 34.4107C120.889 33.7106 120.344 32.896 119.94 31.967C119.536 31.038 119.334 30.0484 119.334 28.9982ZM123.333 28.9982C123.333 29.5098 123.427 29.9945 123.616 30.4523C123.804 30.9101 124.06 31.314 124.383 31.6641C124.72 32.0141 125.11 32.2969 125.554 32.5123C125.999 32.7142 126.47 32.8152 126.968 32.8152C127.466 32.8152 127.937 32.7142 128.382 32.5123C128.826 32.2969 129.217 32.0141 129.553 31.6641C129.89 31.314 130.152 30.9101 130.341 30.4523C130.529 29.9945 130.623 29.5098 130.623 28.9982C130.623 28.5 130.529 28.0221 130.341 27.5643C130.152 27.0931 129.89 26.6891 129.553 26.3525C129.217 26.0025 128.826 25.7265 128.382 25.5245C127.937 25.3091 127.466 25.2014 126.968 25.2014C126.47 25.2014 125.999 25.3091 125.554 25.5245C125.11 25.7265 124.72 26.0025 124.383 26.3525C124.06 26.6891 123.804 27.0931 123.616 27.5643C123.427 28.0221 123.333 28.5 123.333 28.9982ZM150.983 32.4517C150.593 33.0845 150.162 33.6634 149.691 34.1885C149.22 34.7002 148.688 35.1377 148.095 35.5013C147.516 35.8648 146.87 36.1475 146.157 36.3495C145.443 36.5515 144.655 36.6524 143.794 36.6524C142.717 36.6524 141.707 36.4505 140.764 36.0466C139.822 35.6426 138.994 35.0974 138.28 34.4107C137.58 33.724 137.028 32.9162 136.624 31.9872C136.22 31.0582 136.018 30.0686 136.018 29.0184C136.018 27.9682 136.22 26.9786 136.624 26.0496C137.028 25.1206 137.58 24.3128 138.28 23.6261C138.994 22.9394 139.822 22.3942 140.764 21.9902C141.707 21.5863 142.717 21.3844 143.794 21.3844C144.682 21.3844 145.483 21.4853 146.197 21.6873C146.911 21.8893 147.557 22.172 148.136 22.5355C148.715 22.899 149.233 23.3434 149.691 23.8684C150.162 24.3801 150.593 24.9456 150.983 25.5649C151.051 25.6726 151.064 25.7871 151.024 25.9082C150.983 26.0294 150.903 26.1169 150.781 26.1708L147.914 27.3017C147.779 27.3556 147.644 27.3556 147.51 27.3017C147.375 27.2479 147.274 27.1671 147.207 27.0594C146.816 26.4401 146.345 25.9688 145.793 25.6457C145.241 25.3091 144.575 25.1408 143.794 25.1408C143.282 25.1408 142.797 25.2485 142.34 25.4639C141.895 25.6793 141.505 25.9688 141.168 26.3323C140.832 26.6824 140.569 27.0931 140.381 27.5643C140.192 28.0355 140.098 28.5202 140.098 29.0184C140.098 29.53 140.192 30.0215 140.381 30.4927C140.569 30.9505 140.832 31.3544 141.168 31.7044C141.505 32.0545 141.895 32.3373 142.34 32.5527C142.797 32.7681 143.282 32.8758 143.794 32.8758C144.534 32.8758 145.201 32.7008 145.793 32.3507C146.399 31.9872 146.877 31.5227 147.227 30.9572C147.294 30.8495 147.389 30.7687 147.51 30.7149C147.644 30.661 147.779 30.661 147.914 30.7149L150.781 31.8458C150.903 31.8997 150.983 31.9872 151.024 32.1084C151.064 32.2161 151.051 32.3305 150.983 32.4517ZM160.803 36.0264L156.885 31.6439C156.791 31.5362 156.71 31.4958 156.643 31.5227C156.589 31.5496 156.562 31.6304 156.562 31.765V35.9052C156.562 36.0398 156.515 36.1543 156.421 36.2485C156.326 36.3428 156.212 36.3899 156.077 36.3899H153.048C152.9 36.3899 152.779 36.3428 152.684 36.2485C152.604 36.1543 152.563 36.0398 152.563 35.9052V22.0912C152.563 21.9566 152.604 21.8421 152.684 21.7479C152.779 21.6536 152.9 21.6065 153.048 21.6065H156.077C156.212 21.6065 156.326 21.6536 156.421 21.7479C156.515 21.8421 156.562 21.9566 156.562 22.0912V26.7363C156.562 26.8709 156.589 26.9517 156.643 26.9786C156.697 26.9921 156.764 26.945 156.845 26.8372L160.48 22.0104C160.561 21.9027 160.675 21.8152 160.823 21.7479C160.972 21.6671 161.12 21.6267 161.268 21.6267H165.125C165.273 21.6267 165.367 21.694 165.408 21.8287C165.448 21.9498 165.428 22.0643 165.347 22.172L160.036 28.8164C159.955 28.9242 159.915 29.0521 159.915 29.2002C159.928 29.3348 159.982 29.4492 160.076 29.5435C160.534 30.0417 161.019 30.56 161.53 31.0986C162.042 31.6371 162.547 32.1824 163.045 32.7344C163.557 33.273 164.055 33.8116 164.539 34.3501C165.038 34.8752 165.509 35.3666 165.953 35.8244C166.047 35.9321 166.081 36.0533 166.054 36.1879C166.027 36.3226 165.94 36.3899 165.792 36.3899H161.611C161.463 36.3899 161.308 36.3562 161.147 36.2889C160.998 36.2216 160.884 36.1341 160.803 36.0264ZM171.332 25.8073V26.6555C171.332 26.7901 171.379 26.9046 171.474 26.9988C171.568 27.0931 171.682 27.1402 171.817 27.1402H177.29C177.425 27.1402 177.539 27.1873 177.633 27.2816C177.728 27.3758 177.775 27.4902 177.775 27.6249V30.4119C177.775 30.5466 177.728 30.661 177.633 30.7552C177.539 30.8495 177.425 30.8966 177.29 30.8966H171.817C171.682 30.8966 171.568 30.9437 171.474 31.038C171.379 31.1322 171.332 31.2467 171.332 31.3813V32.1488C171.332 32.2834 171.379 32.3978 171.474 32.4921C171.568 32.5863 171.682 32.6335 171.817 32.6335H178.098C178.233 32.6335 178.347 32.6806 178.441 32.7748C178.536 32.8691 178.583 32.9835 178.583 33.1182V35.9052C178.583 36.0398 178.536 36.1543 178.441 36.2485C178.347 36.3428 178.233 36.3899 178.098 36.3899H167.818C167.684 36.3899 167.569 36.3428 167.475 36.2485C167.381 36.1543 167.334 36.0398 167.334 35.9052V22.0912C167.334 21.9566 167.381 21.8421 167.475 21.7479C167.569 21.6536 167.684 21.6065 167.818 21.6065H178.098C178.233 21.6065 178.347 21.6536 178.441 21.7479C178.536 21.8421 178.583 21.9566 178.583 22.0912V24.8379C178.583 24.9725 178.536 25.0869 178.441 25.1812C178.347 25.2754 178.233 25.3226 178.098 25.3226H171.817C171.682 25.3226 171.568 25.3697 171.474 25.4639C171.379 25.5582 171.332 25.6726 171.332 25.8073ZM190.814 25.3226H187.986C187.852 25.3226 187.737 25.3697 187.643 25.4639C187.549 25.5582 187.502 25.6726 187.502 25.8073V35.9052C187.502 36.0398 187.455 36.1543 187.36 36.2485C187.28 36.3428 187.165 36.3899 187.017 36.3899H183.988C183.853 36.3899 183.739 36.3428 183.644 36.2485C183.55 36.1543 183.503 36.0398 183.503 35.9052V25.8073C183.503 25.6726 183.456 25.5582 183.362 25.4639C183.281 25.3697 183.166 25.3226 183.018 25.3226H180.15C180.016 25.3226 179.901 25.2754 179.807 25.1812C179.713 25.0869 179.666 24.9725 179.666 24.8379V22.0912C179.666 21.9566 179.713 21.8421 179.807 21.7479C179.901 21.6536 180.016 21.6065 180.15 21.6065H190.814C190.962 21.6065 191.076 21.6536 191.157 21.7479C191.251 21.8421 191.299 21.9566 191.299 22.0912V24.8379C191.299 24.9725 191.251 25.0869 191.157 25.1812C191.076 25.2754 190.962 25.3226 190.814 25.3226ZM205.998 32.4113H204.241C204.107 32.4113 203.992 32.4584 203.898 32.5527C203.804 32.6469 203.757 32.7614 203.757 32.896V35.9052C203.757 36.0398 203.71 36.1543 203.615 36.2485C203.521 36.3428 203.407 36.3899 203.272 36.3899H200.222C200.088 36.3899 199.973 36.3428 199.879 36.2485C199.785 36.1543 199.738 36.0398 199.738 35.9052V22.0912C199.738 21.9566 199.785 21.8421 199.879 21.7479C199.973 21.6536 200.088 21.6065 200.222 21.6065H206.402C207.156 21.6065 207.863 21.7479 208.523 22.0306C209.196 22.3134 209.775 22.7038 210.26 23.202C210.758 23.7001 211.148 24.2791 211.431 24.9388C211.727 25.5986 211.875 26.3054 211.875 27.0594C211.875 27.8134 211.754 28.5202 211.512 29.18C211.27 29.8262 210.899 30.3917 210.401 30.8764C209.916 31.3477 209.304 31.7246 208.563 32.0074C207.836 32.2767 206.981 32.4113 205.998 32.4113ZM206.14 25.3226H204.241C204.107 25.3226 203.992 25.3697 203.898 25.4639C203.804 25.5582 203.757 25.6726 203.757 25.8073V28.1904C203.757 28.325 203.804 28.4394 203.898 28.5337C203.992 28.6279 204.107 28.6751 204.241 28.6751H206.402C206.914 28.6751 207.284 28.5135 207.513 28.1904C207.755 27.8538 207.877 27.4768 207.877 27.0594C207.877 26.844 207.836 26.6353 207.755 26.4333C207.688 26.2179 207.58 26.0294 207.432 25.8678C207.284 25.7063 207.102 25.5784 206.887 25.4841C206.672 25.3764 206.423 25.3226 206.14 25.3226ZM216.526 22.071C216.58 21.9498 216.667 21.8489 216.788 21.7681C216.923 21.6738 217.064 21.6267 217.212 21.6267H220.04C220.174 21.6267 220.302 21.6738 220.424 21.7681C220.558 21.8489 220.652 21.9498 220.706 22.071L226.603 35.8042C226.657 35.9254 226.644 36.0533 226.563 36.1879C226.496 36.3226 226.354 36.3899 226.139 36.3899H222.685C222.537 36.3899 222.396 36.3495 222.261 36.2687C222.14 36.1745 222.046 36.0668 221.979 35.9456L221.433 34.7338C221.366 34.6127 221.265 34.5117 221.13 34.4309C221.009 34.3366 220.881 34.2895 220.747 34.2895H216.485C216.337 34.2895 216.196 34.3366 216.061 34.4309C215.94 34.5117 215.853 34.6127 215.799 34.7338L215.233 35.9456C215.179 36.0668 215.085 36.1745 214.95 36.2687C214.829 36.3495 214.701 36.3899 214.567 36.3899H211.093C211.026 36.3899 210.958 36.3764 210.891 36.3495C210.81 36.3226 210.75 36.2822 210.709 36.2283C210.655 36.1745 210.622 36.1072 210.608 36.0264C210.595 35.9456 210.615 35.8513 210.669 35.7436L216.526 22.071ZM217.717 30.8562H219.515C219.649 30.8562 219.744 30.8158 219.797 30.735C219.865 30.6408 219.865 30.5331 219.797 30.4119C219.663 30.0753 219.501 29.6849 219.313 29.2406C219.124 28.7828 218.949 28.3587 218.788 27.9682C218.734 27.847 218.673 27.7864 218.606 27.7864C218.539 27.7864 218.478 27.847 218.424 27.9682L217.414 30.4119C217.36 30.5331 217.36 30.6408 217.414 30.735C217.468 30.8158 217.569 30.8562 217.717 30.8562ZM238.554 33.1586V35.9052C238.554 36.0398 238.507 36.1543 238.413 36.2485C238.319 36.3428 238.204 36.3899 238.069 36.3899H227.992C227.844 36.3899 227.722 36.3428 227.628 36.2485C227.547 36.1543 227.507 36.0398 227.507 35.9052V22.0912C227.507 21.9566 227.547 21.8421 227.628 21.7479C227.722 21.6536 227.844 21.6065 227.992 21.6065H231.021C231.156 21.6065 231.27 21.6536 231.364 21.7479C231.459 21.8421 231.506 21.9566 231.506 22.0912V32.1892C231.506 32.3238 231.546 32.4382 231.627 32.5325C231.721 32.6267 231.842 32.6739 231.991 32.6739H238.069C238.204 32.6739 238.319 32.721 238.413 32.8152C238.507 32.9095 238.554 33.0239 238.554 33.1586ZM241.195 31.3207C241.922 31.792 242.642 32.1622 243.356 32.4315C244.069 32.7008 244.736 32.8354 245.355 32.8354C245.948 32.8354 246.399 32.7546 246.708 32.5931C247.018 32.418 247.173 32.1622 247.173 31.8256C247.173 31.6506 247.105 31.516 246.971 31.4217C246.836 31.314 246.654 31.2265 246.426 31.1592C246.21 31.0918 245.954 31.038 245.658 30.9976C245.362 30.9572 245.059 30.9033 244.749 30.836C244.453 30.7822 244.103 30.7216 243.699 30.6543C243.309 30.5735 242.905 30.4658 242.487 30.3311C242.07 30.183 241.653 30.0013 241.235 29.7858C240.831 29.5704 240.468 29.2944 240.145 28.9578C239.821 28.6212 239.559 28.224 239.357 27.7663C239.168 27.295 239.074 26.743 239.074 26.1102C239.074 25.1812 239.256 24.4137 239.62 23.8079C239.983 23.202 240.441 22.724 240.993 22.374C241.558 22.0104 242.184 21.7613 242.871 21.6267C243.558 21.4786 244.224 21.4046 244.87 21.4046C246.001 21.4046 247.011 21.5729 247.9 21.9094C248.802 22.2326 249.664 22.7106 250.485 23.3434C250.593 23.4376 250.653 23.552 250.667 23.6867C250.68 23.8213 250.646 23.9425 250.566 24.0502L248.99 26.292C248.91 26.3997 248.802 26.467 248.667 26.4939C248.533 26.5208 248.411 26.4939 248.304 26.4131C247.617 25.9823 246.978 25.6793 246.385 25.5043C245.793 25.3158 245.247 25.2216 244.749 25.2216C244.601 25.2216 244.426 25.2283 244.224 25.2418C244.036 25.2418 243.854 25.2687 243.679 25.3226C243.504 25.3629 243.356 25.437 243.235 25.5447C243.127 25.6524 243.073 25.8005 243.073 25.989C243.073 26.1775 243.214 26.3458 243.497 26.4939C243.78 26.642 244.103 26.7699 244.467 26.8776C244.83 26.9853 245.18 27.0729 245.517 27.1402C245.853 27.194 246.069 27.2277 246.163 27.2412C246.648 27.3354 247.18 27.4768 247.758 27.6653C248.337 27.8403 248.876 28.1096 249.374 28.4731C249.886 28.8232 250.31 29.2877 250.646 29.8666C250.997 30.4321 251.172 31.1457 251.172 32.0074C251.172 32.8152 251.03 33.5153 250.747 34.1078C250.465 34.6867 250.068 35.1647 249.556 35.5417C249.058 35.9187 248.452 36.2014 247.738 36.3899C247.038 36.5649 246.257 36.6524 245.396 36.6524C244.695 36.6524 244.042 36.5919 243.437 36.4707C242.831 36.363 242.265 36.2081 241.74 36.0062C241.215 35.8042 240.724 35.5686 240.266 35.2993C239.821 35.0166 239.411 34.7204 239.034 34.4107C238.926 34.3299 238.866 34.2222 238.852 34.0876C238.839 33.9395 238.872 33.8116 238.953 33.7038L240.508 31.4621C240.589 31.3544 240.697 31.2871 240.831 31.2601C240.966 31.2332 241.087 31.2534 241.195 31.3207Z" fill="#13644D"/>
<ellipse cx="178.973" cy="293.193" rx="91.1619" ry="43.4772" fill="#13644D"/>
<path d="M211.102 186.805C209.19 171.126 206.092 165.048 201.542 165.905C198.338 166.34 194.356 167.659 190.387 170.124C190.044 169.979 189.675 169.887 189.292 169.9C188.33 169.94 187.591 170.52 186.958 171.219C186.958 170.995 186.932 170.77 186.827 170.559C186.602 170.098 186.141 169.795 185.627 169.927C184.427 170.203 183.636 171.825 183.095 172.801C181.75 175.254 180.669 177.851 179.838 180.528C176.62 185.434 174.168 191.763 173.271 199.78C170.594 223.502 189.899 257.522 189.899 257.522C189.899 257.522 217.353 216.105 211.116 186.792L211.102 186.805Z" fill="#774D2F"/>
<path d="M168.089 290.765L168.142 290.805C168.142 290.805 167.126 296.409 171.966 296.923C176.805 297.437 185.218 297.437 186.747 295.908C187.367 295.288 187.802 291.807 188.106 287.89C186.233 287.35 183.926 286.901 181.262 286.862C175.434 286.77 170.95 288.998 168.089 290.778V290.765Z" fill="#B78558"/>
<path d="M122.689 289.05C122.742 289.222 122.781 289.314 122.781 289.314C122.781 289.314 115.819 290.422 117.863 295.749C120.539 300.074 134.174 298.927 137.233 296.896C137.945 296.553 138.578 296.158 139.172 295.736C135.453 289.169 129.045 288.207 122.689 289.064V289.05Z" fill="#B78558"/>
<path d="M179.864 188.335C178.717 180.713 182.409 151.215 180.101 132.293C182.264 132.821 185.429 132.531 187.446 127.52C190.73 119.358 182.185 112.474 177.794 113.503C176.146 113.885 174.418 114.848 172.928 115.89C162.63 108.004 143.431 107.332 136.969 107.279C135.229 105.908 132.987 104.457 130.851 103.956C126.447 102.941 117.915 109.824 121.199 117.973C122.175 120.386 123.414 121.705 124.68 122.351C120.698 130.737 107.591 160.538 105.428 192.91C102.975 229.673 121.278 284.858 122.689 289.038C129.031 288.194 135.44 289.143 139.172 295.71C144.275 292.11 145.844 286.282 154.52 286.282C163.777 286.282 167.575 290.383 168.089 290.752C170.95 288.972 175.434 286.756 181.262 286.835C183.925 286.875 186.233 287.323 188.106 287.864C188.541 282.181 188.686 275.588 188.686 275.588L192.101 244.903C185.468 240.315 181.394 198.514 179.864 188.321V188.335Z" fill="#936641"/>
<path d="M117.48 196.128C117.48 196.128 122.833 226.72 130.099 227.485C137.365 228.249 135.413 221.617 135.413 221.617L128.569 191.539C128.569 191.539 123.598 200.717 117.48 196.128Z" fill="#B78558"/>
<path d="M129.835 225.243L130.851 228.684" stroke="#231F20" stroke-width="0.409527" stroke-miterlimit="10"/>
<path d="M133.211 224.794L134.24 228.236" stroke="#231F20" stroke-width="0.409527" stroke-miterlimit="10"/>
<path d="M169.052 196.128C169.052 196.128 163.698 226.72 156.432 227.485C149.167 228.249 151.118 221.617 151.118 221.617L157.962 191.539C157.962 191.539 162.933 200.717 169.052 196.128Z" fill="#B78558"/>
<path d="M156.696 225.243L155.68 228.684" stroke="#231F20" stroke-width="0.409527" stroke-miterlimit="10"/>
<path d="M153.32 224.794L152.292 228.236" stroke="#231F20" stroke-width="0.409527" stroke-miterlimit="10"/>
<path d="M143.637 128.026C144.515 125.571 144.232 123.225 143.004 122.786C141.777 122.347 140.07 123.982 139.192 126.436C138.314 128.891 138.597 131.237 139.825 131.676C141.052 132.115 142.759 130.481 143.637 128.026Z" fill="#231F20"/>
<path d="M168.867 136.552C169.864 136.552 170.673 134.439 170.673 131.832C170.673 129.225 169.864 127.111 168.867 127.111C167.869 127.111 167.06 129.225 167.06 131.832C167.06 134.439 167.869 136.552 168.867 136.552Z" fill="#231F20"/>
<path d="M160.599 147.84C160.599 147.576 160.467 147.339 160.19 147.299C159.953 147.273 159.649 147.458 159.649 147.708C159.623 148.605 159.438 149.515 158.871 150.24C158.423 150.807 157.671 151.202 156.933 151.11C156.181 151.018 155.641 150.398 155.364 149.726C154.995 148.842 155.061 147.827 155.1 146.891C155.113 146.561 154.863 146.376 154.612 146.363C154.362 146.31 154.072 146.416 153.992 146.745C153.781 147.668 153.57 148.644 152.977 149.409C152.529 149.976 151.843 150.438 151.091 150.319C150.353 150.213 149.746 149.62 149.47 148.961C149.114 148.117 149.193 147.181 149.404 146.323C149.47 146.073 149.232 145.809 148.995 145.783C148.718 145.743 148.507 145.941 148.454 146.192C148.059 147.814 148.27 149.752 149.733 150.78C150.393 151.242 151.197 151.44 151.988 151.229C152.753 151.031 153.425 150.504 153.874 149.844C154.006 149.646 154.124 149.435 154.23 149.224C154.269 149.462 154.322 149.699 154.401 149.923C154.665 150.675 155.153 151.361 155.839 151.756C156.537 152.165 157.368 152.191 158.133 151.928C159.821 151.334 160.546 149.528 160.612 147.853L160.599 147.84Z" fill="#231F20"/>
<path d="M155.68 142.262C155.245 142.618 154.612 142.526 154.296 142.051L152.397 139.19L151.092 137.212C150.643 136.539 151.21 135.642 152.015 135.761L155.852 136.328L159.689 136.895C160.493 137.014 160.77 138.029 160.15 138.543L158.318 140.06L155.667 142.249L155.68 142.262Z" fill="#231F20"/>
<path d="M253.245 240.921C254.551 232.047 253.773 228.249 251.149 228.025C249.329 227.774 246.942 227.906 244.397 228.658C244.239 228.526 244.041 228.42 243.83 228.368C243.303 228.236 242.802 228.447 242.353 228.737C242.38 228.618 242.406 228.486 242.38 228.355C242.327 228.064 242.116 227.84 241.813 227.827C241.114 227.801 240.428 228.566 239.993 229.027C238.885 230.174 237.896 231.427 237.039 232.772C234.534 234.974 232.24 238.073 230.539 242.332C225.501 254.925 230.961 276.484 230.961 276.484C230.961 276.484 252.243 257.918 253.232 240.921H253.245Z" fill="#895233"/>
<path d="M187.551 296.462L187.631 298.637C187.631 298.637 188.646 301.696 197.256 300.549C205.854 299.402 200.118 296.158 200.118 296.158C200.118 296.158 200.118 296.132 200.118 296.105C195.094 294.655 192.088 294.629 187.525 296.475L187.551 296.462Z" fill="#A56738"/>
<path d="M216.996 297.543L217.076 298.637C217.076 298.637 218.091 301.696 226.701 300.549C235.299 299.402 229.563 296.158 229.563 296.158C229.563 296.158 229.563 296.119 229.589 296.053C224.262 294.628 220.069 296.264 216.996 297.543Z" fill="#A56738"/>
<path d="M244.358 198.765C244.358 194.189 241.509 190.484 237.989 190.484C235.655 190.484 233.624 192.119 232.516 194.532C230.13 193.53 216.759 188.308 205.05 191.512C204.667 187.411 201.99 184.247 198.733 184.247C195.213 184.247 192.365 187.952 192.365 192.528C192.365 195.165 193.314 197.512 194.804 199.028C194.804 204.58 194.435 225.599 188.87 248.542C181.987 272.053 187.538 295.38 187.538 295.38L187.578 296.448C192.14 294.602 195.147 294.628 200.171 296.079C200.223 295.828 200.448 294.747 200.54 294.351C200.54 294.351 202.887 291.305 207.674 290.527C211.748 289.868 214.623 290.475 216.548 291.305L217.023 297.529C220.095 296.237 224.301 294.602 229.616 296.039C229.681 295.723 229.892 294.734 229.972 294.351C230.275 293.112 231.026 290.343 231.528 288.457C234.692 281.244 240.296 266.107 241.562 247.066C243.276 221.142 243.936 214.891 240.784 206.188C242.907 204.843 244.358 202.022 244.358 198.751V198.765Z" fill="#B77946"/>
<path d="M204.101 240.75C204.101 240.75 203.085 260.147 207.41 261.637C211.735 263.127 211.472 258.802 211.472 258.802L211.511 239.497C211.511 239.497 207.199 244.402 204.101 240.737V240.75Z" fill="#A56738"/>
<path d="M207.555 260.225L207.701 262.467" stroke="#231F20" stroke-width="0.258058" stroke-miterlimit="10"/>
<path d="M209.678 260.437L209.823 262.678" stroke="#231F20" stroke-width="0.258058" stroke-miterlimit="10"/>
<path d="M233.031 243.769C233.031 243.769 229.682 262.902 225.132 263.39C220.583 263.878 221.81 259.724 221.81 259.724L226.095 240.907C226.095 240.907 229.207 246.643 233.031 243.782V243.769Z" fill="#A56738"/>
<path d="M225.304 261.992L224.671 264.142" stroke="#231F20" stroke-width="0.258058" stroke-miterlimit="10"/>
<path d="M223.181 261.715L222.548 263.865" stroke="#231F20" stroke-width="0.258058" stroke-miterlimit="10"/>
<path d="M229.293 209.1C230.627 208.825 231.301 206.63 230.799 204.198C230.296 201.766 228.808 200.018 227.474 200.293C226.141 200.569 225.467 202.764 225.969 205.196C226.471 207.628 227.96 209.376 229.293 209.1Z" fill="#231F20"/>
<path d="M206.915 205.066C207.409 202.677 206.918 200.556 205.82 200.329C204.722 200.102 203.431 201.855 202.938 204.244C202.444 206.633 202.934 208.754 204.033 208.981C205.131 209.208 206.422 207.455 206.915 205.066Z" fill="#231F20"/>
<path d="M210.377 216.329C210.377 216.144 210.496 215.973 210.707 215.946C210.878 215.933 211.089 216.078 211.089 216.276C211.076 216.922 211.168 217.608 211.55 218.148C211.854 218.584 212.381 218.9 212.922 218.874C213.476 218.834 213.898 218.412 214.122 217.937C214.425 217.304 214.425 216.566 214.438 215.88C214.438 215.643 214.636 215.524 214.821 215.511C215.005 215.485 215.216 215.577 215.256 215.814C215.361 216.487 215.48 217.212 215.876 217.792C216.179 218.227 216.654 218.584 217.207 218.544C217.748 218.491 218.223 218.096 218.447 217.621C218.737 217.028 218.737 216.342 218.618 215.696C218.579 215.511 218.763 215.327 218.948 215.313C219.159 215.3 219.291 215.445 219.33 215.643C219.541 216.843 219.304 218.241 218.183 218.926C217.682 219.23 217.089 219.335 216.522 219.151C215.968 218.966 215.506 218.557 215.216 218.056C215.124 217.898 215.045 217.74 214.979 217.581C214.939 217.753 214.887 217.924 214.821 218.082C214.596 218.61 214.201 219.098 213.687 219.362C213.159 219.625 212.553 219.612 212.012 219.388C210.812 218.887 210.364 217.529 210.39 216.315L210.377 216.329Z" fill="#231F20"/>
<path d="M214.214 212.492C214.517 212.769 214.979 212.729 215.23 212.399L216.733 210.395L217.774 209.01C218.13 208.536 217.761 207.863 217.168 207.916L214.346 208.153L211.524 208.391C210.931 208.443 210.68 209.169 211.115 209.577L212.381 210.764L214.214 212.478V212.492Z" fill="#231F20"/>
<path d="M136.553 50.0789C136.777 50.0789 136.966 50.1777 137.118 50.3751C137.271 50.5726 137.468 50.981 137.711 51.6004C138.276 53.0634 138.828 55.3568 139.367 58.4804C139.376 58.5163 139.38 58.5702 139.38 58.642C139.38 58.7048 139.335 58.7766 139.246 58.8574C139.165 58.9292 139.044 58.9651 138.882 58.9651C138.73 58.9651 138.599 58.9292 138.492 58.8574C138.384 58.7766 138.312 58.651 138.276 58.4804C138.24 58.3009 138.173 57.9553 138.074 57.4437C137.859 56.3038 137.715 55.7113 137.643 55.6665C137.536 55.6036 137.177 55.5363 136.566 55.4645C135.965 55.3927 135.566 55.3568 135.368 55.3568C135.171 55.3568 135.054 55.3747 135.018 55.4106C134.856 55.5543 134.637 56.6448 134.358 58.6824C134.322 58.8529 134.152 58.9382 133.847 58.9382C133.541 58.9382 133.389 58.808 133.389 58.5477C133.389 57.9015 133.627 56.6673 134.102 54.8452C134.578 53.023 134.973 51.8158 135.287 51.2234C135.682 50.4604 136.104 50.0789 136.553 50.0789ZM136.499 51.5734C136.364 51.5734 136.131 51.9729 135.799 52.7717C135.467 53.5616 135.301 54.0508 135.301 54.2393C135.301 54.2842 135.31 54.3156 135.328 54.3335C135.399 54.4053 135.682 54.4682 136.176 54.522C136.67 54.5759 136.997 54.6028 137.159 54.6028C137.32 54.6028 137.41 54.5938 137.428 54.5759C137.446 54.549 137.455 54.4772 137.455 54.3605C137.455 54.2348 137.334 53.7411 137.091 52.8794C136.849 52.0088 136.652 51.5734 136.499 51.5734ZM140.663 58.5343L140.515 53.0679C140.515 52.8974 140.573 52.7583 140.69 52.6505C140.807 52.5428 140.923 52.489 141.04 52.489C141.327 52.489 141.493 52.6102 141.538 52.8525C141.574 53.0949 141.592 53.3462 141.592 53.6065C142.077 52.9692 142.683 52.6505 143.41 52.6505C144.523 52.6505 145.079 53.9206 145.079 56.4608C145.079 56.6942 145.079 57.0488 145.079 57.5245C145.079 57.9912 145.052 58.3323 144.999 58.5477C144.936 58.817 144.743 58.9517 144.42 58.9517C144.204 58.9517 144.096 58.808 144.096 58.5208L144.11 57.7668C144.11 56.7256 144.074 56.0165 144.002 55.6395C143.939 55.2536 143.877 54.9484 143.814 54.724C143.661 54.2393 143.414 53.9969 143.073 53.9969C142.624 53.9969 142.31 54.1585 142.131 54.4816C141.933 54.8317 141.817 55.2446 141.781 55.7203C141.718 56.5551 141.686 57.4392 141.686 58.3727C141.686 58.5522 141.619 58.6958 141.484 58.8036C141.35 58.9113 141.188 58.9651 141 58.9651C140.775 58.9651 140.663 58.8215 140.663 58.5343ZM153.099 52.664C153.494 52.664 153.691 53.0006 153.691 53.6738C153.691 53.7456 153.691 53.8219 153.691 53.9027L153.664 54.8452C153.655 55.1414 153.651 55.4331 153.651 55.7203L153.853 58.7632C153.853 58.9876 153.624 59.0998 153.166 59.0998C153.139 59.0998 153.072 59.0998 152.964 59.0998C152.865 59.0998 152.793 59.0594 152.749 58.9786C152.713 58.8978 152.708 58.7991 152.735 58.6824C152.771 58.5657 152.762 58.4355 152.708 58.2919C152.295 58.7317 151.748 58.9517 151.066 58.9517C149.8 58.9517 149.167 57.9733 149.167 56.0165C149.167 54.9304 149.369 54.1091 149.773 53.5526C150.186 52.9961 150.774 52.7179 151.537 52.7179C151.896 52.7179 152.255 52.7807 152.614 52.9064C152.731 52.7448 152.892 52.664 153.099 52.664ZM151.698 53.8892C151.187 53.8892 150.805 54.0373 150.554 54.3335C150.303 54.6297 150.177 55.1728 150.177 55.9627C150.177 57.2911 150.536 57.9553 151.254 57.9553C151.443 57.9553 151.649 57.8701 151.873 57.6995C152.107 57.529 152.268 57.336 152.358 57.1206C152.529 56.6359 152.614 56.1063 152.614 55.5318C152.614 54.9574 152.542 54.54 152.399 54.2797C152.264 54.0194 152.031 53.8892 151.698 53.8892ZM155.126 58.5343L154.978 53.0679C154.978 52.8974 155.037 52.7583 155.153 52.6505C155.27 52.5428 155.387 52.489 155.503 52.489C155.791 52.489 155.957 52.6102 156.002 52.8525C156.037 53.0949 156.055 53.3462 156.055 53.6065C156.54 52.9692 157.146 52.6505 157.873 52.6505C158.986 52.6505 159.543 53.9206 159.543 56.4608C159.543 56.6942 159.543 57.0488 159.543 57.5245C159.543 57.9912 159.516 58.3323 159.462 58.5477C159.399 58.817 159.206 58.9517 158.883 58.9517C158.667 58.9517 158.56 58.808 158.56 58.5208L158.573 57.7668C158.573 56.7256 158.537 56.0165 158.465 55.6395C158.403 55.2536 158.34 54.9484 158.277 54.724C158.124 54.2393 157.877 53.9969 157.536 53.9969C157.088 53.9969 156.773 54.1585 156.594 54.4816C156.396 54.8317 156.28 55.2446 156.244 55.7203C156.181 56.5551 156.15 57.4392 156.15 58.3727C156.15 58.5522 156.082 58.6958 155.948 58.8036C155.813 58.9113 155.651 58.9651 155.463 58.9651C155.239 58.9651 155.126 58.8215 155.126 58.5343ZM161.591 50.4425C161.753 50.4425 161.905 50.5188 162.049 50.6714C162.192 50.8239 162.264 50.9855 162.264 51.1561C162.264 51.3176 162.183 51.4837 162.022 51.6542C161.869 51.8248 161.708 51.91 161.537 51.91C161.367 51.91 161.21 51.8382 161.066 51.6946C160.931 51.551 160.864 51.367 160.864 51.1426C160.864 50.7117 161.097 50.4784 161.564 50.4425C161.573 50.4425 161.582 50.4425 161.591 50.4425ZM162.157 57.4976L162.17 58.44C162.17 58.6106 162.103 58.7542 161.968 58.8709C161.833 58.9786 161.69 59.0324 161.537 59.0324C161.313 59.0324 161.196 58.9202 161.187 58.6958C161.07 55.8325 161.012 54.2483 161.012 53.9431C161.012 53.6379 161.026 53.2654 161.052 52.8256C161.07 52.664 161.174 52.5832 161.362 52.5832C161.838 52.5832 162.107 52.7762 162.17 53.1622C162.197 53.3596 162.21 53.5167 162.21 53.6334L162.157 54.4816V57.4976ZM164.481 58.9651C164.247 58.9651 164.108 58.835 164.063 58.5747C164.063 56.7615 163.956 55.1459 163.74 53.7277C163.74 53.5481 163.803 53.3866 163.929 53.243C164.063 53.0993 164.212 53.0275 164.373 53.0275C164.544 53.0275 164.669 53.1218 164.75 53.3103C165.082 52.8705 165.527 52.6505 166.083 52.6505C166.792 52.6505 167.34 52.9916 167.726 53.6738C168.174 53.0275 168.767 52.7044 169.503 52.7044C170.248 52.7044 170.804 53.0006 171.172 53.593C171.415 53.961 171.585 54.4457 171.684 55.0471C171.783 55.6485 171.832 56.5012 171.832 57.6053C171.832 58.0361 171.787 58.3727 171.697 58.6151C171.608 58.8484 171.419 58.9651 171.132 58.9651C170.899 58.9651 170.782 58.817 170.782 58.5208L170.822 56.8378C170.822 54.8182 170.297 53.8084 169.247 53.8084C168.915 53.8084 168.682 53.9251 168.547 54.1585C168.394 54.4368 168.305 54.7285 168.278 55.0337C168.242 55.5722 168.224 56.0614 168.224 56.5012V58.4535C168.224 58.5971 168.152 58.7183 168.008 58.817C167.865 58.9158 167.717 58.9651 167.564 58.9651C167.367 58.9651 167.241 58.835 167.187 58.5747L167.227 55.7876C167.227 54.8003 167.061 54.1854 166.729 53.9431C166.568 53.8264 166.321 53.7681 165.989 53.7681C165.666 53.7681 165.423 53.8892 165.262 54.1316C165.109 54.3739 165.033 54.7644 165.033 55.3029L165.114 57.8072C165.114 58.5792 164.903 58.9651 164.481 58.9651ZM176.621 52.664C177.016 52.664 177.213 53.0006 177.213 53.6738C177.213 53.7456 177.213 53.8219 177.213 53.9027L177.187 54.8452C177.178 55.1414 177.173 55.4331 177.173 55.7203L177.375 58.7632C177.375 58.9876 177.146 59.0998 176.688 59.0998C176.661 59.0998 176.594 59.0998 176.486 59.0998C176.388 59.0998 176.316 59.0594 176.271 58.9786C176.235 58.8978 176.231 58.7991 176.258 58.6824C176.293 58.5657 176.284 58.4355 176.231 58.2919C175.818 58.7317 175.27 58.9517 174.588 58.9517C173.322 58.9517 172.69 57.9733 172.69 56.0165C172.69 54.9304 172.892 54.1091 173.295 53.5526C173.708 52.9961 174.296 52.7179 175.059 52.7179C175.418 52.7179 175.777 52.7807 176.136 52.9064C176.253 52.7448 176.415 52.664 176.621 52.664ZM175.221 53.8892C174.709 53.8892 174.328 54.0373 174.076 54.3335C173.825 54.6297 173.699 55.1728 173.699 55.9627C173.699 57.2911 174.058 57.9553 174.777 57.9553C174.965 57.9553 175.171 57.8701 175.396 57.6995C175.629 57.529 175.791 57.336 175.881 57.1206C176.051 56.6359 176.136 56.1063 176.136 55.5318C176.136 54.9574 176.065 54.54 175.921 54.2797C175.786 54.0194 175.553 53.8892 175.221 53.8892ZM178.097 50.2405C178.124 49.8994 178.178 49.6795 178.258 49.5808C178.348 49.4731 178.487 49.4192 178.676 49.4192C179.062 49.4192 179.255 49.5763 179.255 49.8904C179.255 50.1328 179.232 50.7656 179.187 51.7889C179.151 52.8121 179.133 53.7277 179.133 54.5355C179.133 55.3433 179.165 55.9941 179.228 56.4878C179.335 57.3495 179.488 57.7803 179.685 57.7803C179.883 57.7803 180.031 57.6412 180.13 57.3629C180.175 57.2552 180.246 57.161 180.345 57.0802C180.444 56.9904 180.57 56.9455 180.722 56.9455C181.036 56.9455 181.193 57.2103 181.193 57.7399C181.193 58.0271 181.036 58.3144 180.722 58.6016C180.417 58.8799 180.112 59.019 179.807 59.019C179.501 59.019 179.255 58.9696 179.066 58.8709C178.887 58.7632 178.739 58.6061 178.622 58.3996C178.514 58.1932 178.424 57.9957 178.353 57.8072C178.29 57.6098 178.245 57.3719 178.218 57.0936C178.164 56.6448 178.124 55.9268 178.097 54.9394C178.079 53.9431 178.07 52.9961 178.07 52.0985C178.07 51.192 178.079 50.5726 178.097 50.2405ZM184.776 50.2405C184.803 49.8994 184.857 49.6795 184.938 49.5808C185.027 49.4731 185.167 49.4192 185.355 49.4192C185.741 49.4192 185.934 49.5763 185.934 49.8904C185.934 50.1328 185.912 50.7656 185.867 51.7889C185.831 52.8121 185.813 53.7277 185.813 54.5355C185.813 55.3433 185.844 55.9941 185.907 56.4878C186.015 57.3495 186.167 57.7803 186.365 57.7803C186.562 57.7803 186.71 57.6412 186.809 57.3629C186.854 57.2552 186.926 57.161 187.025 57.0802C187.123 56.9904 187.249 56.9455 187.402 56.9455C187.716 56.9455 187.873 57.2103 187.873 57.7399C187.873 58.0271 187.716 58.3144 187.402 58.6016C187.096 58.8799 186.791 59.019 186.486 59.019C186.181 59.019 185.934 58.9696 185.746 58.8709C185.566 58.7632 185.418 58.6061 185.301 58.3996C185.193 58.1932 185.104 57.9957 185.032 57.8072C184.969 57.6098 184.924 57.3719 184.897 57.0936C184.843 56.6448 184.803 55.9268 184.776 54.9394C184.758 53.9431 184.749 52.9961 184.749 52.0985C184.749 51.192 184.758 50.5726 184.776 50.2405ZM190.332 52.7179C190.807 52.7179 191.261 52.857 191.692 53.1352C192.122 53.4135 192.338 53.7591 192.338 54.172C192.338 54.5759 192.163 54.9708 191.813 55.3568C191.463 55.7338 190.996 55.9627 190.412 56.0435C190.161 56.0794 189.784 56.0973 189.281 56.0973C189.38 56.8603 189.573 57.3629 189.86 57.6053C189.95 57.704 190.071 57.7534 190.224 57.7534C190.78 57.7534 191.247 57.5783 191.624 57.2283C192.001 56.8692 192.27 56.6897 192.432 56.6897C192.504 56.6897 192.612 56.757 192.755 56.8917C192.899 57.0263 192.971 57.152 192.971 57.2687C192.971 57.502 192.688 57.8386 192.122 58.2785C191.871 58.4849 191.566 58.6599 191.207 58.8036C190.857 58.9382 190.529 59.0055 190.224 59.0055C189.443 59.0055 188.869 58.5029 188.501 57.4976C188.267 56.8782 188.151 56.196 188.151 55.451C188.151 54.706 188.326 54.0643 188.676 53.5257C189.026 52.9871 189.578 52.7179 190.332 52.7179ZM190.399 53.6469C190.058 53.6469 189.766 53.8399 189.524 54.2258C189.434 54.3605 189.349 54.6656 189.268 55.1414C190.525 55.1414 191.153 54.8317 191.153 54.2124C191.153 53.8354 190.902 53.6469 190.399 53.6469ZM197.514 52.664C197.909 52.664 198.106 53.0006 198.106 53.6738C198.106 53.7456 198.106 53.8219 198.106 53.9027L198.079 54.8452C198.07 55.1414 198.066 55.4331 198.066 55.7203L198.268 58.7632C198.268 58.9876 198.039 59.0998 197.581 59.0998C197.554 59.0998 197.487 59.0998 197.379 59.0998C197.28 59.0998 197.209 59.0594 197.164 58.9786C197.128 58.8978 197.123 58.7991 197.15 58.6824C197.186 58.5657 197.177 58.4355 197.123 58.2919C196.71 58.7317 196.163 58.9517 195.481 58.9517C194.215 58.9517 193.582 57.9733 193.582 56.0165C193.582 54.9304 193.784 54.1091 194.188 53.5526C194.601 52.9961 195.189 52.7179 195.952 52.7179C196.311 52.7179 196.67 52.7807 197.029 52.9064C197.146 52.7448 197.307 52.664 197.514 52.664ZM196.114 53.8892C195.602 53.8892 195.22 54.0373 194.969 54.3335C194.718 54.6297 194.592 55.1728 194.592 55.9627C194.592 57.2911 194.951 57.9553 195.669 57.9553C195.858 57.9553 196.064 57.8701 196.289 57.6995C196.522 57.529 196.684 57.336 196.773 57.1206C196.944 56.6359 197.029 56.1063 197.029 55.5318C197.029 54.9574 196.957 54.54 196.814 54.2797C196.679 54.0194 196.446 53.8892 196.114 53.8892ZM200.767 56.9859L200.78 58.3727C200.78 58.5343 200.704 58.6824 200.551 58.817C200.408 58.9517 200.264 59.019 200.12 59.019C199.914 59.019 199.784 58.8574 199.73 58.5343C199.721 58.4625 199.685 57.8072 199.622 56.5685C199.559 55.3209 199.438 54.3425 199.259 53.6334C199.178 53.2923 199.138 53.0904 199.138 53.0275C199.138 52.7313 199.317 52.5832 199.676 52.5832C199.829 52.5832 199.95 52.6416 200.04 52.7583C200.129 52.8749 200.183 52.9961 200.201 53.1218C200.228 53.2385 200.251 53.4 200.269 53.6065C200.287 53.8129 200.3 53.9431 200.309 53.9969C200.497 53.5481 200.78 53.2115 201.157 52.9871C201.534 52.7627 201.947 52.6505 202.396 52.6505C203.132 52.6505 203.5 52.839 203.5 53.216C203.5 53.4045 203.433 53.5571 203.298 53.6738C203.172 53.7815 203.024 53.8354 202.854 53.8354C202.091 53.8354 201.552 54.0777 201.238 54.5624C200.924 55.0471 200.767 55.855 200.767 56.9859ZM204.722 58.5343L204.574 53.0679C204.574 52.8974 204.632 52.7583 204.749 52.6505C204.866 52.5428 204.982 52.489 205.099 52.489C205.386 52.489 205.552 52.6102 205.597 52.8525C205.633 53.0949 205.651 53.3462 205.651 53.6065C206.136 52.9692 206.742 52.6505 207.469 52.6505C208.582 52.6505 209.138 53.9206 209.138 56.4608C209.138 56.6942 209.138 57.0488 209.138 57.5245C209.138 57.9912 209.111 58.3323 209.057 58.5477C208.995 58.817 208.802 58.9517 208.478 58.9517C208.263 58.9517 208.155 58.808 208.155 58.5208L208.169 57.7668C208.169 56.7256 208.133 56.0165 208.061 55.6395C207.998 55.2536 207.935 54.9484 207.873 54.724C207.72 54.2393 207.473 53.9969 207.132 53.9969C206.683 53.9969 206.369 54.1585 206.19 54.4816C205.992 54.8317 205.875 55.2446 205.839 55.7203C205.777 56.5551 205.745 57.4392 205.745 58.3727C205.745 58.5522 205.678 58.6958 205.543 58.8036C205.409 58.9113 205.247 58.9651 205.059 58.9651C204.834 58.9651 204.722 58.8215 204.722 58.5343ZM211.187 50.4425C211.348 50.4425 211.501 50.5188 211.644 50.6714C211.788 50.8239 211.86 50.9855 211.86 51.1561C211.86 51.3176 211.779 51.4837 211.617 51.6542C211.465 51.8248 211.303 51.91 211.133 51.91C210.962 51.91 210.805 51.8382 210.662 51.6946C210.527 51.551 210.46 51.367 210.46 51.1426C210.46 50.7117 210.693 50.4784 211.16 50.4425C211.169 50.4425 211.178 50.4425 211.187 50.4425ZM211.752 57.4976L211.766 58.44C211.766 58.6106 211.698 58.7542 211.564 58.8709C211.429 58.9786 211.285 59.0324 211.133 59.0324C210.908 59.0324 210.792 58.9202 210.783 58.6958C210.666 55.8325 210.608 54.2483 210.608 53.9431C210.608 53.6379 210.621 53.2654 210.648 52.8256C210.666 52.664 210.769 52.5832 210.958 52.5832C211.433 52.5832 211.703 52.7762 211.766 53.1622C211.793 53.3596 211.806 53.5167 211.806 53.6334L211.752 54.4816V57.4976ZM213.821 58.5343L213.673 53.0679C213.673 52.8974 213.731 52.7583 213.848 52.6505C213.964 52.5428 214.081 52.489 214.198 52.489C214.485 52.489 214.651 52.6102 214.696 52.8525C214.732 53.0949 214.75 53.3462 214.75 53.6065C215.234 52.9692 215.84 52.6505 216.567 52.6505C217.68 52.6505 218.237 53.9206 218.237 56.4608C218.237 56.6942 218.237 57.0488 218.237 57.5245C218.237 57.9912 218.21 58.3323 218.156 58.5477C218.093 58.817 217.9 58.9517 217.577 58.9517C217.362 58.9517 217.254 58.808 217.254 58.5208L217.267 57.7668C217.267 56.7256 217.231 56.0165 217.16 55.6395C217.097 55.2536 217.034 54.9484 216.971 54.724C216.819 54.2393 216.572 53.9969 216.231 53.9969C215.782 53.9969 215.468 54.1585 215.288 54.4816C215.091 54.8317 214.974 55.2446 214.938 55.7203C214.875 56.5551 214.844 57.4392 214.844 58.3727C214.844 58.5522 214.777 58.6958 214.642 58.8036C214.507 58.9113 214.346 58.9651 214.157 58.9651C213.933 58.9651 213.821 58.8215 213.821 58.5343ZM223.261 58.3996C222.938 58.7766 222.529 58.9651 222.036 58.9651C221.542 58.9651 221.116 58.8125 220.757 58.5074C220.003 57.9239 219.626 57.0308 219.626 55.828C219.626 54.8856 219.886 54.1316 220.406 53.5661C220.927 52.9916 221.569 52.7044 222.332 52.7044C223.095 52.7044 223.615 52.9647 223.894 53.4853C224.136 53.9431 224.257 54.6342 224.257 55.5588L224.23 56.6628C224.23 57.1834 224.253 57.906 224.298 58.8305C224.351 59.746 224.378 60.4372 224.378 60.9039C224.378 61.6759 224.185 62.2413 223.799 62.6004C223.422 62.9684 222.843 63.1524 222.063 63.1524C221.596 63.1524 221.12 63.0537 220.635 62.8562C220.151 62.6587 219.908 62.4298 219.908 62.1695C219.908 61.981 219.958 61.8374 220.056 61.7387C220.164 61.64 220.285 61.5906 220.42 61.5906C220.555 61.5906 220.855 61.6893 221.322 61.8868C221.798 62.0843 222.139 62.183 222.345 62.183C222.992 62.183 223.315 61.6534 223.315 60.5943C223.315 59.5351 223.297 58.8036 223.261 58.3996ZM223.247 55.5588C223.247 54.9035 223.149 54.4457 222.951 54.1854C222.763 53.9162 222.462 53.7815 222.049 53.7815C221.636 53.7815 221.304 53.97 221.053 54.347C220.801 54.724 220.676 55.2042 220.676 55.7876C220.676 56.3621 220.792 56.8199 221.026 57.161C221.268 57.502 221.636 57.6726 222.13 57.6726C222.624 57.6726 222.942 57.4617 223.086 57.0398C223.194 56.6987 223.247 56.205 223.247 55.5588ZM152.842 70.664C153.237 70.664 153.435 71.0006 153.435 71.6738C153.435 71.7456 153.435 71.8219 153.435 71.9027L153.408 72.8452C153.399 73.1414 153.394 73.4331 153.394 73.7203L153.596 76.7632C153.596 76.9876 153.367 77.0998 152.91 77.0998C152.883 77.0998 152.815 77.0998 152.708 77.0998C152.609 77.0998 152.537 77.0594 152.492 76.9786C152.456 76.8978 152.452 76.7991 152.479 76.6824C152.515 76.5657 152.506 76.4355 152.452 76.2919C152.039 76.7317 151.491 76.9517 150.809 76.9517C149.544 76.9517 148.911 75.9733 148.911 74.0165C148.911 72.9304 149.113 72.1091 149.517 71.5526C149.93 70.9961 150.518 70.7179 151.28 70.7179C151.64 70.7179 151.999 70.7807 152.358 70.9064C152.474 70.7448 152.636 70.664 152.842 70.664ZM151.442 71.8892C150.93 71.8892 150.549 72.0373 150.298 72.3335C150.046 72.6297 149.921 73.1728 149.921 73.9627C149.921 75.2911 150.28 75.9553 150.998 75.9553C151.186 75.9553 151.393 75.8701 151.617 75.6995C151.85 75.529 152.012 75.336 152.102 75.1206C152.272 74.6359 152.358 74.1063 152.358 73.5318C152.358 72.9574 152.286 72.54 152.142 72.2797C152.008 72.0194 151.774 71.8892 151.442 71.8892ZM156.486 76.9382C156.18 76.9382 155.898 76.835 155.637 76.6285C155.637 76.6285 155.579 76.5792 155.462 76.4804V80.5196C155.409 80.6991 155.314 80.8472 155.18 80.9639C155.045 81.0896 154.901 81.1524 154.749 81.1524C154.515 81.1524 154.399 80.9953 154.399 80.6812V71.2968C154.453 71.0634 154.515 70.8974 154.587 70.7986C154.668 70.6999 154.789 70.6505 154.951 70.6505C155.121 70.6505 155.229 70.6909 155.274 70.7717C155.328 70.8435 155.391 71.05 155.462 71.3911C155.498 71.2115 155.642 71.0455 155.893 70.8929C156.145 70.7403 156.481 70.664 156.903 70.664C157.819 70.664 158.469 70.9961 158.855 71.6603C159.241 72.3246 159.434 73.11 159.434 74.0165C159.434 74.9141 159.169 75.6277 158.64 76.1573C158.119 76.6779 157.401 76.9382 156.486 76.9382ZM155.462 72.899V75.4033C155.516 75.4302 155.579 75.4751 155.651 75.5379C155.911 75.7713 156.194 75.888 156.499 75.888C157.738 75.888 158.357 75.2507 158.357 73.9761C158.357 72.89 158.079 72.2034 157.522 71.9162C157.289 71.7905 157.002 71.7277 156.661 71.7277C156.329 71.7725 156.046 71.9206 155.812 72.172C155.579 72.4143 155.462 72.6567 155.462 72.899ZM162.245 76.9382C161.939 76.9382 161.657 76.835 161.396 76.6285C161.396 76.6285 161.338 76.5792 161.221 76.4804V80.5196C161.168 80.6991 161.073 80.8472 160.939 80.9639C160.804 81.0896 160.66 81.1524 160.508 81.1524C160.274 81.1524 160.158 80.9953 160.158 80.6812V71.2968C160.212 71.0634 160.274 70.8974 160.346 70.7986C160.427 70.6999 160.548 70.6505 160.71 70.6505C160.88 70.6505 160.988 70.6909 161.033 70.7717C161.087 70.8435 161.15 71.05 161.221 71.3911C161.257 71.2115 161.401 71.0455 161.652 70.8929C161.904 70.7403 162.24 70.664 162.662 70.664C163.578 70.664 164.228 70.9961 164.614 71.6603C165 72.3246 165.193 73.11 165.193 74.0165C165.193 74.9141 164.928 75.6277 164.399 76.1573C163.878 76.6779 163.16 76.9382 162.245 76.9382ZM161.221 72.899V75.4033C161.275 75.4302 161.338 75.4751 161.41 75.5379C161.67 75.7713 161.953 75.888 162.258 75.888C163.497 75.888 164.116 75.2507 164.116 73.9761C164.116 72.89 163.838 72.2034 163.281 71.9162C163.048 71.7905 162.761 71.7277 162.42 71.7277C162.088 71.7725 161.805 71.9206 161.571 72.172C161.338 72.4143 161.221 72.6567 161.221 72.899ZM170.81 67.5269C170.954 67.4192 171.075 67.3609 171.174 67.3519C171.282 67.3339 171.52 67.325 171.888 67.325C172.265 67.325 172.574 67.3788 172.817 67.4865C173.059 67.5942 173.18 67.8097 173.18 68.1328C173.18 68.4559 173.05 68.6175 172.79 68.6175C172.736 68.6175 172.583 68.5726 172.332 68.4829C172.08 68.3841 171.919 68.3348 171.847 68.3348C171.533 68.3348 171.344 68.5232 171.282 68.9002C171.264 69.0349 171.255 69.3131 171.255 69.735C171.255 70.1479 171.255 70.489 171.255 70.7583H172.197C172.592 70.7762 172.79 70.9153 172.79 71.1756C172.79 71.5526 172.52 71.7501 171.982 71.7681C171.901 71.777 171.802 71.7815 171.686 71.7815C171.569 71.7815 171.434 71.777 171.282 71.7681C171.3 72.1271 171.34 72.7689 171.403 73.6934C171.466 74.6089 171.497 75.502 171.497 76.3727C171.497 76.5522 171.425 76.6958 171.282 76.8036C171.138 76.9113 170.99 76.9651 170.837 76.9651C170.595 76.9651 170.474 76.8215 170.474 76.5343C170.474 75.7264 170.442 74.941 170.38 74.1781C170.317 73.4151 170.272 72.6118 170.245 71.7681C169.437 71.7681 168.966 71.6873 168.831 71.5257C168.777 71.4629 168.75 71.3821 168.75 71.2834C168.75 71.05 168.845 70.8974 169.033 70.8256C169.231 70.7538 169.455 70.7179 169.706 70.7179C169.958 70.7179 170.137 70.7179 170.245 70.7179C170.272 69.2548 170.353 68.3482 170.487 67.9982C170.568 67.7827 170.676 67.6257 170.81 67.5269ZM176.201 70.6775C176.847 70.6775 177.377 70.9871 177.79 71.6065C178.212 72.2258 178.423 72.9708 178.423 73.8415C178.423 74.7032 178.207 75.4392 177.776 76.0496C177.354 76.6599 176.789 76.9651 176.08 76.9651C175.38 76.9651 174.814 76.6555 174.383 76.0361C173.953 75.4078 173.737 74.7122 173.737 73.9492C173.737 72.9708 173.935 72.1899 174.33 71.6065C174.751 70.9871 175.375 70.6775 176.201 70.6775ZM176.039 71.7815C175.662 71.7815 175.353 71.979 175.11 72.3739C174.868 72.7689 174.747 73.1863 174.747 73.6261C174.747 74.3082 174.882 74.8288 175.151 75.1879C175.42 75.5469 175.725 75.7264 176.066 75.7264C176.677 75.7264 177.067 75.4617 177.238 74.9321C177.31 74.6807 177.345 74.3666 177.345 73.9896C177.345 72.5175 176.91 71.7815 176.039 71.7815ZM180.985 74.9859L180.998 76.3727C180.998 76.5343 180.922 76.6824 180.77 76.817C180.626 76.9517 180.482 77.019 180.339 77.019C180.132 77.019 180.002 76.8574 179.948 76.5343C179.939 76.4625 179.903 75.8072 179.841 74.5685C179.778 73.3209 179.657 72.3425 179.477 71.6334C179.396 71.2923 179.356 71.0904 179.356 71.0275C179.356 70.7313 179.535 70.5832 179.894 70.5832C180.047 70.5832 180.168 70.6416 180.258 70.7583C180.348 70.8749 180.402 70.9961 180.42 71.1218C180.446 71.2385 180.469 71.4 180.487 71.6065C180.505 71.8129 180.518 71.9431 180.527 71.9969C180.716 71.5481 180.998 71.2115 181.375 70.9871C181.752 70.7627 182.165 70.6505 182.614 70.6505C183.35 70.6505 183.718 70.839 183.718 71.216C183.718 71.4045 183.651 71.5571 183.516 71.6738C183.391 71.7815 183.242 71.8354 183.072 71.8354C182.309 71.8354 181.77 72.0777 181.456 72.5624C181.142 73.0471 180.985 73.855 180.985 74.9859ZM192.338 76.3458C192.338 76.7677 192.145 76.9786 191.759 76.9786C191.598 76.9786 191.378 76.5836 191.1 75.7938C190.821 74.9949 190.449 74.3801 189.982 73.9492C189.937 74.012 189.744 74.1916 189.403 74.4878C189.071 74.775 188.874 74.95 188.811 75.0129V76.3592C188.793 76.4939 188.77 76.5971 188.743 76.6689C188.716 76.7407 188.654 76.808 188.555 76.8709C188.465 76.9337 188.339 76.9651 188.178 76.9651C187.936 76.9651 187.814 76.817 187.814 76.5208C187.814 75.6861 187.778 74.3935 187.707 72.6432C187.635 70.8839 187.599 69.3086 187.599 67.9174C187.599 67.7468 187.666 67.6122 187.801 67.5135C187.945 67.4147 188.093 67.3654 188.245 67.3654C188.452 67.3654 188.577 67.4955 188.622 67.7558V70.1389C188.622 70.4261 188.627 70.6416 188.636 70.7852C188.645 70.9288 188.654 71.1442 188.663 71.4315C188.681 72.0239 188.712 72.6926 188.757 73.4376C189.017 73.2401 189.349 72.9304 189.753 72.5086C190.166 72.0777 190.476 71.7097 190.682 71.4045C191.005 70.8929 191.302 70.6371 191.571 70.6371C191.643 70.6371 191.714 70.655 191.786 70.6909C191.975 70.7986 192.069 70.9243 192.069 71.0679C192.069 71.2115 192.006 71.4 191.88 71.6334C191.557 72.1899 191.185 72.6971 190.763 73.1548C191.167 73.6036 191.571 74.2454 191.975 75.0802C192.217 75.6187 192.338 76.0406 192.338 76.3458ZM194.008 68.4425C194.17 68.4425 194.322 68.5188 194.466 68.6714C194.61 68.8239 194.682 68.9855 194.682 69.1561C194.682 69.3176 194.601 69.4837 194.439 69.6542C194.287 69.8248 194.125 69.91 193.954 69.91C193.784 69.91 193.627 69.8382 193.483 69.6946C193.349 69.551 193.281 69.367 193.281 69.1426C193.281 68.7117 193.515 68.4784 193.981 68.4425C193.99 68.4425 193.999 68.4425 194.008 68.4425ZM194.574 75.4976L194.587 76.44C194.587 76.6106 194.52 76.7542 194.385 76.8709C194.251 76.9786 194.107 77.0324 193.954 77.0324C193.73 77.0324 193.613 76.9202 193.604 76.6958C193.488 73.8325 193.429 72.2483 193.429 71.9431C193.429 71.6379 193.443 71.2654 193.47 70.8256C193.488 70.664 193.591 70.5832 193.779 70.5832C194.255 70.5832 194.524 70.7762 194.587 71.1622C194.614 71.3596 194.628 71.5167 194.628 71.6334L194.574 72.4816V75.4976ZM199.349 70.6505L199.335 68.052C199.335 67.5673 199.488 67.325 199.793 67.325C200.107 67.325 200.282 67.4596 200.318 67.7289C200.336 67.8456 200.358 68.5502 200.385 69.8427C200.412 71.1352 200.453 72.347 200.506 73.478C200.569 74.6089 200.601 75.6636 200.601 76.642C200.601 76.9113 200.399 77.0459 199.995 77.0459C199.726 77.0459 199.591 76.8574 199.591 76.4804C199.205 76.7856 198.747 76.9382 198.218 76.9382C197.544 76.9382 196.997 76.6869 196.575 76.1842C196.162 75.6816 195.956 75.0622 195.956 74.3262C195.956 73.5902 196.104 72.9035 196.4 72.2662C196.705 71.6199 197.176 71.1577 197.814 70.8794C198.209 70.7089 198.59 70.6236 198.958 70.6236C199.093 70.6236 199.223 70.6326 199.349 70.6505ZM199.416 72.4951C199.353 72.2976 199.277 72.1495 199.187 72.0508C199.097 71.9431 198.998 71.8803 198.891 71.8623C198.792 71.8354 198.671 71.8219 198.527 71.8219C198.384 71.8219 198.209 71.8758 198.002 71.9835C197.796 72.0912 197.621 72.2662 197.477 72.5086C197.19 72.9933 197.046 73.5049 197.046 74.0435C197.046 74.573 197.149 75.0084 197.356 75.3495C197.571 75.6816 197.872 75.8476 198.258 75.8476C198.653 75.8476 198.963 75.6546 199.187 75.2687C199.411 74.8827 199.524 74.389 199.524 73.7876C199.524 73.1144 199.488 72.6836 199.416 72.4951ZM201.606 72.3739C201.606 71.8443 201.794 71.4225 202.171 71.1083C202.548 70.7942 202.984 70.6371 203.477 70.6371C203.98 70.6371 204.46 70.7268 204.918 70.9064C205.376 71.0859 205.605 71.3237 205.605 71.6199C205.605 71.7725 205.546 71.8937 205.43 71.9835C205.313 72.0732 205.21 72.1181 205.12 72.1181C205.039 72.1181 204.972 72.1181 204.918 72.1181C204.873 72.1091 204.693 72.0239 204.379 71.8623C204.074 71.7007 203.791 71.6199 203.531 71.6199C203.271 71.6199 203.046 71.6873 202.858 71.8219C202.678 71.9476 202.589 72.1361 202.589 72.3874C202.589 72.6387 202.692 72.8362 202.898 72.9798C203.114 73.1234 203.486 73.2491 204.016 73.3568C204.545 73.4555 204.949 73.5991 205.228 73.7876C205.515 73.9761 205.658 74.3262 205.658 74.8378C205.658 75.5828 205.461 76.1124 205.066 76.4266C204.68 76.7317 204.209 76.8843 203.652 76.8843C203.096 76.8843 202.62 76.808 202.225 76.6555C201.839 76.5029 201.646 76.274 201.646 75.9688C201.646 75.6187 201.821 75.4437 202.171 75.4437C202.261 75.4437 202.458 75.5065 202.764 75.6322C203.069 75.7579 203.37 75.8207 203.666 75.8207C203.971 75.8207 204.2 75.7264 204.352 75.5379C204.514 75.3405 204.595 75.1161 204.595 74.8648C204.595 74.6134 204.492 74.4339 204.285 74.3262C204.079 74.2095 203.764 74.1153 203.343 74.0435C202.921 73.9716 202.611 73.8954 202.414 73.8146C201.875 73.5991 201.606 73.1189 201.606 72.3739ZM208.254 67.6885L208.133 72.2797C208.133 72.7734 208.137 73.0965 208.146 73.2491C208.11 73.3658 208.038 73.469 207.931 73.5588C207.832 73.6485 207.72 73.6934 207.594 73.6934C207.468 73.6934 207.365 73.5947 207.284 73.3972C207.15 71.1352 207.082 69.2323 207.082 67.6885C207.163 67.4641 207.37 67.3519 207.702 67.3519C208.034 67.3519 208.218 67.4641 208.254 67.6885ZM207.325 76.3054C207.19 76.1438 207.123 75.9823 207.123 75.8207C207.123 75.6591 207.186 75.511 207.311 75.3764C207.437 75.2417 207.603 75.1744 207.809 75.1744C208.025 75.1744 208.177 75.2148 208.267 75.2956C208.366 75.3764 208.415 75.5514 208.415 75.8207C208.415 76.2964 208.218 76.5343 207.823 76.5343C207.625 76.5343 207.459 76.458 207.325 76.3054Z" fill="#13644D"/>
</svg>
