<?xml version="1.0" encoding="UTF-8"?>
<svg id="Layer_2" data-name="Layer 2" xmlns="http://www.w3.org/2000/svg" viewBox="0 0 37.28 18.21">
  <defs>
    <style>
      .cls-1 {
        fill: #625d9c;
      }

      .cls-2 {
        fill: #f9f3ed;
      }
    </style>
  </defs>
  <g id="Layer_1-2" data-name="Layer 1">
    <g>
      <path class="cls-1" d="M19.07,14.93c-.12.53-.37.96-.76,1.27-.39.32-.84.48-1.36.48h-6.3c-.53-.04-.92-.21-1.18-.51s-.32-.71-.2-1.24l.42-1.98h3.73l-.5,2.34h2.34l2.08-9.81h3.73l-2,9.45Z"/>
      <path class="cls-2" d="M16.94,16.47h-6.31c-.45-.04-.79-.19-1-.43-.21-.24-.26-.59-.16-1.05l.39-1.81h3.28l-.5,2.34h2.79l2.08-9.81h3.28l-.02.09-1.92,9.09c-.11.48-.33.86-.69,1.15-.35.29-.75.43-1.22.43ZM10.64,16.32h6.3c.44,0,.81-.13,1.13-.4.33-.27.54-.62.64-1.07l1.9-9h-2.98l-2.08,9.81h-3.09l.5-2.34h-2.98l-.36,1.69c-.09.42-.05.72.12.92.18.22.5.35.9.38Z"/>
      <path class="cls-1" d="M33.59,7.3c.79,0,1.37.24,1.75.71.38.48.48,1.11.3,1.9l-.87,4.16c-.18.79-.56,1.42-1.14,1.9-.58.48-1.26.71-2.03.71h-9.38c-.79,0-1.37-.24-1.74-.71-.37-.48-.48-1.11-.31-1.9l.46-2.25h5.56l-.58,2.78h3.48l1.11-5.22h-6.43c-.79,0-1.37-.24-1.75-.71-.38-.48-.48-1.11-.3-1.9l.87-4.16c.18-.79.56-1.42,1.14-1.9.58-.48,1.26-.71,2.03-.71h9.38c.79,0,1.37.24,1.75.71.38.47.48,1.1.3,1.88l-.46,2.25h-5.56l.58-2.76h-3.48l-1.11,5.22h6.43Z"/>
      <path class="cls-2" d="M31.61,16.47h-9.38c-.72,0-1.24-.21-1.57-.63-.33-.43-.42-.99-.27-1.72l.42-2.07h5.11l-.58,2.78h3.93l1.21-5.67h-6.71c-.73,0-1.24-.21-1.58-.63-.34-.42-.42-.98-.26-1.71l.87-4.16c.17-.74.52-1.33,1.06-1.77.55-.45,1.16-.66,1.89-.66h9.38c.73,0,1.24.2,1.58.62.34.42.42.97.26,1.69l-.42,2.08h-5.11l.58-2.76h-3.93l-1.21,5.67h6.71c.73,0,1.24.21,1.58.63.34.42.42.98.26,1.71l-.87,4.16c-.17.75-.51,1.33-1.06,1.77-.54.45-1.16.66-1.89.66ZM20.93,12.19l-.4,1.95c-.14.69-.06,1.21.24,1.6.3.38.77.57,1.45.57h9.38c.69,0,1.28-.21,1.8-.63.52-.43.85-.98,1.01-1.69l.87-4.16c.15-.68.08-1.2-.23-1.59-.31-.39-.79-.57-1.46-.57h-6.89l1.27-5.96h4.24l-.58,2.76h4.81l.4-1.96c.15-.68.08-1.19-.23-1.57-.31-.38-.79-.57-1.47-.57h-9.38c-.69,0-1.28.21-1.8.63-.51.42-.85.99-1.01,1.69l-.87,4.16c-.15.68-.08,1.2.23,1.59.31.39.79.57,1.46.57h6.89l-1.27,5.96h-4.23l.58-2.78h-4.81Z"/>
      <path class="cls-1" d="M21.15,4.84h-3.73l.52-2.49h3.75l-.54,2.49Z"/>
      <path class="cls-2" d="M20.97,4.62h-3.28l.43-2.05h3.29l-.44,2.05ZM17.87,4.47h2.98l.38-1.75h-2.99l-.37,1.75Z"/>
      <path class="cls-1" d="M8.15,15.28c-3.73-1.11-4.02-.96-5.79,2.93,1.27-4.09,1.16-4.39-2.36-6.05,3.73,1.11,4.02.96,5.79-2.93-1.27,4.09-1.16,4.39,2.36,6.05Z"/>
      <path class="cls-2" d="M3.21,15.97l.05-.33c.18-1.22-.1-1.89-1.08-2.56l-.26-.17.31.04c.19.03.36.04.52.04.86,0,1.42-.34,2-1.23l.18-.28-.05.33c-.18,1.22.1,1.89,1.08,2.56l.26.18-.31-.04c-.19-.03-.36-.04-.52-.04-.86,0-1.42.34-2,1.23l-.18.28ZM2.49,13.12c.78.6,1.05,1.23.95,2.24.61-.82,1.26-1.11,2.22-1.04-.78-.6-1.05-1.23-.95-2.24-.61.82-1.25,1.11-2.22,1.04Z"/>
    </g>
  </g>
</svg>